<?xml version="1.0" encoding="UTF-8" standalone="no"?>
<svg
   xmlns:dc="http://purl.org/dc/elements/1.1/"
   xmlns:cc="http://creativecommons.org/ns#"
   xmlns:rdf="http://www.w3.org/1999/02/22-rdf-syntax-ns#"
   xmlns:svg="http://www.w3.org/2000/svg"
   xmlns="http://www.w3.org/2000/svg"
   xmlns:sodipodi="http://sodipodi.sourceforge.net/DTD/sodipodi-0.dtd"
   xmlns:inkscape="http://www.inkscape.org/namespaces/inkscape"
   id="Ebene_1"
   data-name="Ebene 1"
   viewBox="0 0 147.24 60"
   version="1.1"
   sodipodi:docname="alpine.svg"
   inkscape:version="0.92.4 (5da689c313, 2019-01-14)">
  <metadata
     id="metadata139">
    <rdf:RDF>
      <cc:Work
         rdf:about="">
        <dc:format>image/svg+xml</dc:format>
        <dc:type
           rdf:resource="http://purl.org/dc/dcmitype/StillImage" />
      </cc:Work>
    </rdf:RDF>
  </metadata>
  <sodipodi:namedview
     pagecolor="#ffffff"
     bordercolor="#666666"
     borderopacity="1"
     objecttolerance="10"
     gridtolerance="10"
     guidetolerance="10"
     inkscape:pageopacity="0"
     inkscape:pageshadow="2"
     inkscape:window-width="2560"
     inkscape:window-height="1440"
     id="namedview137"
     showgrid="false"
     inkscape:zoom="2.2684052"
     inkscape:cx="0"
     inkscape:cy="30"
     inkscape:window-x="0"
     inkscape:window-y="0"
     inkscape:window-maximized="0"
     inkscape:current-layer="Ebene_1" />
  <defs
     id="defs4">
    <style
       id="style2">.cls-1,.cls-2{fill:#fff;}.cls-2{fill-rule:evenodd;}</style>
  </defs>
  <title
     id="title6">Logo CampusAlpin Dtsch neg_60px</title>
  <polygon
     class="cls-1"
     points="0 46.58 2.55 46.58 2.55 40.68 2.59 40.68 7.16 46.58 10.49 46.58 5.05 39.86 10.28 33.87 7.14 33.87 2.55 39.33 2.55 33.87 0 33.87 0 46.58 0 46.58"
     id="polygon8"
     style="fill:#000000" />
  <polygon
     class="cls-1"
     points="11.93 46.58 14.48 46.58 14.48 33.87 11.93 33.87 11.93 46.58 11.93 46.58"
     id="polygon10"
     style="fill:#000000" />
  <polygon
     class="cls-1"
     points="19.53 46.58 22.08 46.58 22.08 35.87 25.73 35.87 25.73 33.87 15.89 33.87 15.89 35.87 19.53 35.87 19.53 46.58 19.53 46.58"
     id="polygon12"
     style="fill:#000000" />
  <polygon
     class="cls-1"
     points="29.17 42.68 29.17 40.68 24.38 40.68 24.38 42.68 29.17 42.68 29.17 42.68"
     id="polygon14"
     style="fill:#000000" />
  <path
     class="cls-1"
     d="M71.11,163a3.58,3.58,0,0,1-.77.28,6.84,6.84,0,0,1-1,.18,7.37,7.37,0,0,1-1,.07,4.58,4.58,0,0,1-1.82-.35,3.72,3.72,0,0,1-1.35-.95,4,4,0,0,1-.85-1.44A5.44,5.44,0,0,1,64,159a5.54,5.54,0,0,1,.29-1.81,4.46,4.46,0,0,1,.85-1.47,3.89,3.89,0,0,1,1.35-1,4.51,4.51,0,0,1,1.77-.36,6.8,6.8,0,0,1,.9.06,5.13,5.13,0,0,1,.91.2A5.45,5.45,0,0,1,71,155l.18-2.15a7.8,7.8,0,0,0-1-.3,7.21,7.21,0,0,0-1-.17,7.31,7.31,0,0,0-.91-.06,8.8,8.8,0,0,0-2.91.45,6,6,0,0,0-2.19,1.31,5.71,5.71,0,0,0-1.39,2.14,8.13,8.13,0,0,0-.48,2.9,7.07,7.07,0,0,0,.51,2.8,5.17,5.17,0,0,0,1.43,2,6.33,6.33,0,0,0,2.21,1.18,10,10,0,0,0,2.82.38,10.25,10.25,0,0,0,1.46-.11c.5-.08,1-.17,1.44-.29L71.11,163Z"
     transform="translate(-30.68 -118.69)"
     id="path16"
     style="fill:#000000" />
  <path
     class="cls-1"
     d="M73.37,158.48a5.33,5.33,0,0,1,1.37-.74,4.41,4.41,0,0,1,1.53-.28,3.07,3.07,0,0,1,1.18.19,1.29,1.29,0,0,1,.7.64,2.62,2.62,0,0,1,.23,1.19H77c-.34,0-.7,0-1.06,0a8,8,0,0,0-1.09.17,4.21,4.21,0,0,0-1,.34,3,3,0,0,0-.83.58,2.5,2.5,0,0,0-.56.88,3.25,3.25,0,0,0-.21,1.22,2.39,2.39,0,0,0,.28,1.18,2.59,2.59,0,0,0,.73.88,3.49,3.49,0,0,0,1,.54,4.14,4.14,0,0,0,1.22.18,3.69,3.69,0,0,0,1.12-.18,3.39,3.39,0,0,0,1-.56,2.77,2.77,0,0,0,.75-.88h0c0,.1,0,.23,0,.39s0,.32,0,.5,0,.35.07.52h2.15c0-.37,0-.72-.07-1.06s0-.69,0-1,0-.7,0-1.08,0-.8,0-1.27v-1.2a5.1,5.1,0,0,0-.41-2.26,2.69,2.69,0,0,0-1.31-1.29,5.67,5.67,0,0,0-2.32-.41,7.09,7.09,0,0,0-1.1.09,8.77,8.77,0,0,0-1.13.25,6.27,6.27,0,0,0-1,.38l.07,2.09Zm1.24,4.08a1.45,1.45,0,0,1,.17-.72,1.32,1.32,0,0,1,.47-.47,2.55,2.55,0,0,1,.65-.28,4.33,4.33,0,0,1,.72-.12l.7,0h1.06a5,5,0,0,1-.1,1,2.41,2.41,0,0,1-.41.89,2,2,0,0,1-.72.61,2.13,2.13,0,0,1-1,.23,2.39,2.39,0,0,1-.79-.12,1.19,1.19,0,0,1-.56-.38,1,1,0,0,1-.2-.65Z"
     transform="translate(-30.68 -118.69)"
     id="path18"
     style="fill:#000000" />
  <path
     class="cls-1"
     d="M83,165.28h2.44v-4.56a7.33,7.33,0,0,1,0-.79,4.86,4.86,0,0,1,.14-.85,3.09,3.09,0,0,1,.3-.75,1.64,1.64,0,0,1,.53-.55,1.48,1.48,0,0,1,.81-.21,1.35,1.35,0,0,1,.81.21,1,1,0,0,1,.42.52,2.18,2.18,0,0,1,.16.68c0,.25,0,.48,0,.7v5.6h2.44v-4.56c0-.25,0-.51,0-.79a6,6,0,0,1,.14-.85,2.76,2.76,0,0,1,.31-.75,1.55,1.55,0,0,1,.53-.55,1.48,1.48,0,0,1,.81-.21,1.35,1.35,0,0,1,.81.21,1.07,1.07,0,0,1,.42.52,2.5,2.5,0,0,1,.15.68,5.61,5.61,0,0,1,0,.7v5.6h2.44v-5.93a6.19,6.19,0,0,0-.14-1.46,3.25,3.25,0,0,0-.47-1.16,2.34,2.34,0,0,0-.92-.78,3.51,3.51,0,0,0-1.44-.28,3.77,3.77,0,0,0-1.14.18,3.11,3.11,0,0,0-1,.55,3,3,0,0,0-.76.93,2.63,2.63,0,0,0-1.09-1.26,3.47,3.47,0,0,0-2.63-.25,3,3,0,0,0-1,.48,3.71,3.71,0,0,0-.86.9h0v-1.31H83v9.39Z"
     transform="translate(-30.68 -118.69)"
     id="path20"
     style="fill:#000000" />
  <path
     class="cls-1"
     d="M99.2,169.1h2.44v-4.9h0a4.19,4.19,0,0,0,.86.8,3.13,3.13,0,0,0,.91.39,3.93,3.93,0,0,0,1,.1,4.24,4.24,0,0,0,1.54-.26,3.29,3.29,0,0,0,1.13-.73,3.75,3.75,0,0,0,.76-1.09,5.46,5.46,0,0,0,.43-1.35,8.28,8.28,0,0,0,.13-1.5,8.13,8.13,0,0,0-.13-1.5,5.53,5.53,0,0,0-.42-1.34,4,4,0,0,0-.75-1.07,3.18,3.18,0,0,0-1.12-.72,4.33,4.33,0,0,0-1.51-.26,3.86,3.86,0,0,0-1.28.21,2.66,2.66,0,0,0-1,.54,3.25,3.25,0,0,0-.68.8h0v-1.33H99.2V169.1Zm4.65-11.53a1.68,1.68,0,0,1,1.4.69,2.75,2.75,0,0,1,.37.7,4.43,4.43,0,0,1,.19.8,5.59,5.59,0,0,1,.06.8,5.73,5.73,0,0,1-.06.81,4.67,4.67,0,0,1-.2.82,2.55,2.55,0,0,1-.38.71,1.82,1.82,0,0,1-.59.51,1.78,1.78,0,0,1-.83.19,1.86,1.86,0,0,1-.84-.19,1.75,1.75,0,0,1-.61-.5,2.49,2.49,0,0,1-.41-.71,4.3,4.3,0,0,1-.22-.82,4.7,4.7,0,0,1-.07-.82,4.65,4.65,0,0,1,.08-.82,3.69,3.69,0,0,1,.24-.8,2.89,2.89,0,0,1,.42-.7,2,2,0,0,1,.62-.49,1.84,1.84,0,0,1,.83-.18Z"
     transform="translate(-30.68 -118.69)"
     id="path22"
     style="fill:#000000" />
  <path
     class="cls-1"
     d="M119,155.89h-2.44v4.59a5.49,5.49,0,0,1-.05.79,4.75,4.75,0,0,1-.19.83,3.14,3.14,0,0,1-.39.75,1.81,1.81,0,0,1-1.52.75,1.53,1.53,0,0,1-.76-.17,1.2,1.2,0,0,1-.47-.45,1.93,1.93,0,0,1-.25-.63,4.43,4.43,0,0,1-.09-.72c0-.25,0-.5,0-.73v-5h-2.44v5.92a5.64,5.64,0,0,0,.18,1.47,3.21,3.21,0,0,0,.58,1.17,2.71,2.71,0,0,0,1,.77,3.48,3.48,0,0,0,1.43.27,3.79,3.79,0,0,0,2.24-.7,4.17,4.17,0,0,0,.84-.79h0v1.28H119v-9.39Z"
     transform="translate(-30.68 -118.69)"
     id="path24"
     style="fill:#000000" />
  <path
     class="cls-1"
     d="M127.21,156l-.78-.16c-.26-.05-.55-.1-.85-.13a8.05,8.05,0,0,0-1-.06,5.69,5.69,0,0,0-1.39.17,3.91,3.91,0,0,0-1.17.53,2.56,2.56,0,0,0-.82.91,3.09,3.09,0,0,0-.07,2.5,2.08,2.08,0,0,0,.61.76,3,3,0,0,0,.83.45,7.91,7.91,0,0,0,.9.3c.3.08.58.18.83.27a1.76,1.76,0,0,1,.61.38.85.85,0,0,1,.23.62,1,1,0,0,1-.16.57,1.27,1.27,0,0,1-.41.35,2.28,2.28,0,0,1-.52.18,3.14,3.14,0,0,1-.51.05,4.62,4.62,0,0,1-1.23-.17,6.8,6.8,0,0,1-1.18-.45l-.14,2a10.41,10.41,0,0,0,1.37.29,9.33,9.33,0,0,0,1.4.11,5.81,5.81,0,0,0,1.45-.17,3.85,3.85,0,0,0,1.26-.54,2.59,2.59,0,0,0,.88-.95,2.69,2.69,0,0,0,.34-1.4,2.82,2.82,0,0,0-.23-1.2,2.36,2.36,0,0,0-.61-.8,3.67,3.67,0,0,0-.83-.5,6.46,6.46,0,0,0-.9-.32l-.83-.27a1.94,1.94,0,0,1-.61-.33.65.65,0,0,1-.23-.51.89.89,0,0,1,.47-.82,1.5,1.5,0,0,1,.46-.17,2.94,2.94,0,0,1,.51,0,6.18,6.18,0,0,1,.79,0,5,5,0,0,1,.69.13l.7.22.17-1.84Z"
     transform="translate(-30.68 -118.69)"
     id="path26"
     style="fill:#000000" />
  <path
     class="cls-1"
     d="M141.73,160.36H138l1.84-5.25h0l1.84,5.25Zm-8.2,4.92h2.64l1.11-2.92h5.16l1.09,2.92h2.82l-5-12.72h-2.88l-4.95,12.72Z"
     transform="translate(-30.68 -118.69)"
     id="path28"
     style="fill:#000000" />
  <polygon
     class="cls-1"
     points="117.15 46.58 119.59 46.58 119.59 32.92 117.15 32.92 117.15 46.58 117.15 46.58"
     id="polygon30"
     style="fill:#000000" />
  <path
     class="cls-1"
     d="M152.84,169.1h2.44v-4.9h0a4,4,0,0,0,.86.8,3,3,0,0,0,.9.39,4,4,0,0,0,1,.1,4.28,4.28,0,0,0,1.54-.26,3.39,3.39,0,0,0,1.13-.73,4.18,4.18,0,0,0,.76-1.09,5.9,5.9,0,0,0,.42-1.35,7.48,7.48,0,0,0,.14-1.5,7.34,7.34,0,0,0-.14-1.5,5.12,5.12,0,0,0-.42-1.34,3.56,3.56,0,0,0-.75-1.07,3.23,3.23,0,0,0-1.11-.72,4.39,4.39,0,0,0-1.52-.26,3.8,3.8,0,0,0-1.27.21,2.66,2.66,0,0,0-1,.54,3,3,0,0,0-.68.8h0v-1.33h-2.33V169.1Zm4.64-11.53a1.74,1.74,0,0,1,.82.19,1.56,1.56,0,0,1,.58.5,2.47,2.47,0,0,1,.37.7,4.46,4.46,0,0,1,.2.8,5.59,5.59,0,0,1,.06.8,5.73,5.73,0,0,1-.06.81,4.67,4.67,0,0,1-.2.82,3.21,3.21,0,0,1-.38.71,1.93,1.93,0,0,1-.59.51,1.81,1.81,0,0,1-.83.19,1.87,1.87,0,0,1-.85-.19,1.84,1.84,0,0,1-.61-.5,2.46,2.46,0,0,1-.4-.71,3.67,3.67,0,0,1-.22-.82,4.7,4.7,0,0,1-.07-.82,4.62,4.62,0,0,1,.07-.82,4.37,4.37,0,0,1,.25-.8,2.89,2.89,0,0,1,.42-.7,2,2,0,0,1,.62-.49,1.8,1.8,0,0,1,.82-.18Z"
     transform="translate(-30.68 -118.69)"
     id="path32"
     style="fill:#000000" />
  <path
     class="cls-1"
     d="M164,165.28h2.44v-9.39H164v9.39Zm0-11.1h2.44v-2.33H164v2.33Z"
     transform="translate(-30.68 -118.69)"
     id="path34"
     style="fill:#000000" />
  <path
     class="cls-1"
     d="M169,165.28h2.44v-4.6a5.45,5.45,0,0,1,.05-.78,4,4,0,0,1,.2-.83,2.53,2.53,0,0,1,.38-.75,1.75,1.75,0,0,1,.61-.54,1.83,1.83,0,0,1,.91-.21,1.55,1.55,0,0,1,.76.17,1.2,1.2,0,0,1,.47.45,2.08,2.08,0,0,1,.25.63,5.45,5.45,0,0,1,.09.72c0,.25,0,.49,0,.73v5h2.44v-5.93a5.56,5.56,0,0,0-.18-1.46,3.38,3.38,0,0,0-.58-1.17,2.71,2.71,0,0,0-1-.77,3.66,3.66,0,0,0-1.44-.28,4.09,4.09,0,0,0-1.73.35,3.38,3.38,0,0,0-1.34,1.15h0v-1.28H169v9.39Z"
     transform="translate(-30.68 -118.69)"
     id="path36"
     style="fill:#000000" />
  <polygon
     class="cls-1"
     points="0.2 58.38 0.93 58.38 0.93 53.29 0.2 53.29 0.2 58.38 0.2 58.38"
     id="polygon38"
     style="fill:#000000" />
  <polygon
     class="cls-1"
     points="2.23 58.38 2.96 58.38 2.96 53.98 2.98 53.98 4.66 58.38 5.38 58.38 7.06 53.98 7.08 53.98 7.08 58.38 7.81 58.38 7.81 53.29 6.6 53.29 5.04 57.52 3.44 53.29 2.23 53.29 2.23 58.38 2.23 58.38"
     id="polygon40"
     style="fill:#000000" />
  <polygon
     class="cls-1"
     points="9.15 58.38 9.88 58.38 9.88 55.89 12.14 58.38 13.21 58.38 10.63 55.7 13.02 53.29 12.05 53.29 9.88 55.53 9.88 53.29 9.15 53.29 9.15 58.38 9.15 58.38"
     id="polygon42"
     style="fill:#000000" />
  <polygon
     class="cls-1"
     points="13.6 56.7 15.48 56.7 15.48 56.14 13.6 56.14 13.6 56.7 13.6 56.7"
     id="polygon44"
     style="fill:#000000" />
  <polygon
     class="cls-1"
     points="16.4 58.38 17.13 58.38 17.13 53.29 16.4 53.29 16.4 58.38 16.4 58.38"
     id="polygon46"
     style="fill:#000000" />
  <polygon
     class="cls-1"
     points="18.39 58.38 19.11 58.38 19.11 56.06 21 56.06 21 55.42 19.11 55.42 19.11 53.93 21.09 53.93 21.09 53.29 18.39 53.29 18.39 58.38 18.39 58.38"
     id="polygon48"
     style="fill:#000000" />
  <path
     class="cls-1"
     d="M56.72,172H56v2.88a3.4,3.4,0,0,1-.06.67,1.53,1.53,0,0,1-.21.52,1,1,0,0,1-.39.34,1.29,1.29,0,0,1-.59.12,1.32,1.32,0,0,1-.59-.12.9.9,0,0,1-.38-.34,1.35,1.35,0,0,1-.21-.52,2.36,2.36,0,0,1-.06-.67V172h-.73v3a2.82,2.82,0,0,0,.23,1.2,1.61,1.61,0,0,0,.67.74,2.12,2.12,0,0,0,1.07.25,2.09,2.09,0,0,0,1.07-.25,1.63,1.63,0,0,0,.68-.74,2.82,2.82,0,0,0,.23-1.2v-3Z"
     transform="translate(-30.68 -118.69)"
     id="path50"
     style="fill:#000000" />
  <path
     class="cls-1"
     d="M58.8,173.36H58v.81h.82v-.81ZM58,177.08h.82v-.82H58v.82Z"
     transform="translate(-30.68 -118.69)"
     id="path52"
     style="fill:#000000" />
  <path
     class="cls-1"
     d="M61.52,177.08h.76l.52-1.29h2.49l.52,1.29h.8L64.46,172h-.77l-2.17,5.09Zm3.54-1.89H63l1-2.52,1,2.52Z"
     transform="translate(-30.68 -118.69)"
     id="path54"
     style="fill:#000000" />
  <path
     class="cls-1"
     d="M69.25,173.36h-1v-1.08l-.69.22v.86h-.84v.55h.84v2.17a1.22,1.22,0,0,0,.14.61.93.93,0,0,0,.4.36,1.42,1.42,0,0,0,.61.11,1.55,1.55,0,0,0,.31,0l.27-.07v-.58l-.19.09a1.11,1.11,0,0,1-.28,0,.54.54,0,0,1-.28-.08.5.5,0,0,1-.21-.22.8.8,0,0,1-.08-.36v-2h1v-.55Z"
     transform="translate(-30.68 -118.69)"
     id="path56"
     style="fill:#000000" />
  <path
     class="cls-1"
     d="M70.11,177.08h.68V175.2a2.22,2.22,0,0,1,.06-.51,1.3,1.3,0,0,1,.17-.44,1,1,0,0,1,.3-.31.79.79,0,0,1,.45-.12.6.6,0,0,1,.34.1.71.71,0,0,1,.2.25,1.15,1.15,0,0,1,.1.33c0,.12,0,.24,0,.36v2.22h.69V175.2a2.94,2.94,0,0,1,0-.51,1.92,1.92,0,0,1,.17-.44.92.92,0,0,1,.31-.31.78.78,0,0,1,.44-.12.6.6,0,0,1,.34.1.55.55,0,0,1,.2.25,1.15,1.15,0,0,1,.1.33,2.19,2.19,0,0,1,0,.36v2.22h.68v-2.39a2.47,2.47,0,0,0-.06-.56,1.07,1.07,0,0,0-.23-.45.94.94,0,0,0-.4-.3,1.5,1.5,0,0,0-.6-.11,1,1,0,0,0-.28,0,1,1,0,0,0-.32.12,1.6,1.6,0,0,0-.31.22A1.72,1.72,0,0,0,73,174a1.09,1.09,0,0,0-.27-.41,1.19,1.19,0,0,0-.36-.24,1.25,1.25,0,0,0-.43-.07,1.47,1.47,0,0,0-.69.15,1.19,1.19,0,0,0-.49.48h0v-.54h-.64v3.72Z"
     transform="translate(-30.68 -118.69)"
     id="path58"
     style="fill:#000000" />
  <path
     class="cls-1"
     d="M76.35,175.22a2.12,2.12,0,0,0,.14.75,1.91,1.91,0,0,0,.39.62,1.67,1.67,0,0,0,.59.42,2,2,0,0,0,.77.15A1.92,1.92,0,0,0,79,177a1.81,1.81,0,0,0,.6-.42A2.07,2.07,0,0,0,80,176a2.12,2.12,0,0,0,.14-.75,2.22,2.22,0,0,0-.13-.79,1.77,1.77,0,0,0-.39-.61,1.65,1.65,0,0,0-.59-.41,2.16,2.16,0,0,0-.78-.14,2.11,2.11,0,0,0-.77.14,1.69,1.69,0,0,0-.6.41,1.77,1.77,0,0,0-.39.61,2.22,2.22,0,0,0-.13.79Zm.73,0a1.49,1.49,0,0,1,.08-.52,1.45,1.45,0,0,1,.22-.45,1.23,1.23,0,0,1,.37-.31,1,1,0,0,1,.49-.12,1,1,0,0,1,.49.12,1.12,1.12,0,0,1,.37.31,1.45,1.45,0,0,1,.22.45,1.49,1.49,0,0,1,.08.52,1.87,1.87,0,0,1,0,.4,1.63,1.63,0,0,1-.13.37,1.24,1.24,0,0,1-.23.32,1.12,1.12,0,0,1-.33.22,1.14,1.14,0,0,1-.43.08,1.18,1.18,0,0,1-.43-.08,1.27,1.27,0,0,1-.33-.22,1.54,1.54,0,0,1-.23-.32,1.63,1.63,0,0,1-.13-.37,1.87,1.87,0,0,1,0-.4Z"
     transform="translate(-30.68 -118.69)"
     id="path60"
     style="fill:#000000" />
  <path
     class="cls-1"
     d="M80.74,177a1.48,1.48,0,0,0,.49.16,2.37,2.37,0,0,0,.53,0,1.51,1.51,0,0,0,.48-.07,1.19,1.19,0,0,0,.42-.21,1,1,0,0,0,.29-.36,1.37,1.37,0,0,0,.11-.52,1.31,1.31,0,0,0-.09-.43,1.33,1.33,0,0,0-.23-.3,1.77,1.77,0,0,0-.32-.21l-.34-.16-.32-.16a.87.87,0,0,1-.23-.19.62.62,0,0,1-.09-.27.43.43,0,0,1,.1-.26.49.49,0,0,1,.24-.15,1,1,0,0,1,.32-.05l.16,0,.2,0,.21.06.15.07.06-.6-.41-.1a2,2,0,0,0-.44,0,1.72,1.72,0,0,0-.52.07,1.22,1.22,0,0,0-.41.21.9.9,0,0,0-.28.36,1.12,1.12,0,0,0-.1.5.8.8,0,0,0,.09.39.85.85,0,0,0,.22.28,2.2,2.2,0,0,0,.32.21l.34.17.32.17a.9.9,0,0,1,.23.2.37.37,0,0,1,.09.25.49.49,0,0,1-.07.25.44.44,0,0,1-.17.16.73.73,0,0,1-.22.09l-.24,0-.25,0-.31-.09a2.75,2.75,0,0,1-.3-.14l0,.61Z"
     transform="translate(-30.68 -118.69)"
     id="path62"
     style="fill:#000000" />
  <path
     class="cls-1"
     d="M83.89,178.61h.68v-2.05h0a1.14,1.14,0,0,0,.27.31,1.17,1.17,0,0,0,.4.21,1.91,1.91,0,0,0,.57.08,1.55,1.55,0,0,0,.59-.11,1.19,1.19,0,0,0,.45-.3,1.83,1.83,0,0,0,.32-.45,2.37,2.37,0,0,0,.18-.55,3.83,3.83,0,0,0,0-.6,2.84,2.84,0,0,0-.09-.72,1.93,1.93,0,0,0-.3-.59,1.44,1.44,0,0,0-.5-.42,1.58,1.58,0,0,0-.71-.15,1.63,1.63,0,0,0-.45.06,1.42,1.42,0,0,0-.36.14,1.89,1.89,0,0,0-.27.2.84.84,0,0,0-.18.21h0v-.52h-.65v5.25Zm2.8-3.41a1.18,1.18,0,0,1,0,.37,1.66,1.66,0,0,1-.11.38,1.38,1.38,0,0,1-.2.33,1,1,0,0,1-.29.24.93.93,0,0,1-.8,0,.87.87,0,0,1-.31-.22,1,1,0,0,1-.21-.32,1.71,1.71,0,0,1-.13-.38,2.33,2.33,0,0,1,0-.38,1.79,1.79,0,0,1,.07-.51,1.82,1.82,0,0,1,.2-.45,1,1,0,0,1,.83-.44,1,1,0,0,1,.48.12,1,1,0,0,1,.32.32,1.57,1.57,0,0,1,.18.44,2.11,2.11,0,0,1,0,.5Z"
     transform="translate(-30.68 -118.69)"
     id="path64"
     style="fill:#000000" />
  <path
     class="cls-1"
     d="M88.34,177.08H89v-1.73a3,3,0,0,1,.06-.62,1.75,1.75,0,0,1,.21-.48.87.87,0,0,1,.35-.31,1,1,0,0,1,.51-.12.83.83,0,0,1,.47.17.82.82,0,0,1,.24.44,2.86,2.86,0,0,1,.08.72v1.93h.68v-2.21a2.21,2.21,0,0,0-.15-.86,1.12,1.12,0,0,0-.45-.55,1.47,1.47,0,0,0-.79-.19,1.45,1.45,0,0,0-.7.16,1.3,1.3,0,0,0-.5.46h0v-2.28h-.69v5.47Z"
     transform="translate(-30.68 -118.69)"
     id="path66"
     style="fill:#000000" />
  <path
     class="cls-1"
     d="M93.3,172.79H94v-.73H93.3v.73Zm1.2,0h.68v-.73H94.5v.73ZM93,174.2a1.45,1.45,0,0,1,.32-.2,1.47,1.47,0,0,1,.37-.13,1.74,1.74,0,0,1,.39-.05,1.15,1.15,0,0,1,.54.11.59.59,0,0,1,.29.33,1.36,1.36,0,0,1,.09.53h-.73a2.28,2.28,0,0,0-.45,0,1.91,1.91,0,0,0-.47.12,1.66,1.66,0,0,0-.41.23,1,1,0,0,0-.29.35,1.06,1.06,0,0,0-.11.48,1.2,1.2,0,0,0,.17.66,1.06,1.06,0,0,0,.48.38,2,2,0,0,0,.71.12,1.73,1.73,0,0,0,.42,0,1.26,1.26,0,0,0,.33-.15,1.24,1.24,0,0,0,.25-.18,2.31,2.31,0,0,0,.16-.19h0v.49h.64s0-.09,0-.15a1.55,1.55,0,0,1,0-.23c0-.1,0-.21,0-.35v-1.54a2.12,2.12,0,0,0-.15-.85,1.06,1.06,0,0,0-.48-.52,1.93,1.93,0,0,0-.86-.17,2,2,0,0,0-.66.1,2.1,2.1,0,0,0-.57.25l0,.58Zm2,1.43a1,1,0,0,1-.12.5.91.91,0,0,1-.35.35,1.2,1.2,0,0,1-.57.13.74.74,0,0,1-.46-.16.52.52,0,0,1-.17-.19.53.53,0,0,1-.06-.26.47.47,0,0,1,.1-.32.58.58,0,0,1,.25-.21,1.75,1.75,0,0,1,.32-.12l.34,0H95v.33Z"
     transform="translate(-30.68 -118.69)"
     id="path68"
     style="fill:#000000" />
  <path
     class="cls-1"
     d="M96.85,177.08h.69v-1.7a2.36,2.36,0,0,1,.12-.8,1.16,1.16,0,0,1,.36-.53.83.83,0,0,1,.53-.18h.19l.19.05v-.61l-.14,0h-.31a.92.92,0,0,0-.39.09,1.08,1.08,0,0,0-.34.23,1.16,1.16,0,0,0-.24.34h0v-.57h-.64v3.72Z"
     transform="translate(-30.68 -118.69)"
     id="path70"
     style="fill:#000000" />
  <path
     class="cls-1"
     d="M99.78,177.08h.68v-3.72h-.68v3.72Zm.72-5.33h-.77v.78h.77v-.78Z"
     transform="translate(-30.68 -118.69)"
     id="path72"
     style="fill:#000000" />
  <path
     class="cls-1"
     d="M101.4,177a1.54,1.54,0,0,0,.5.16,2.28,2.28,0,0,0,.52,0,1.61,1.61,0,0,0,.49-.07,1.07,1.07,0,0,0,.41-.21.94.94,0,0,0,.29-.36,1.21,1.21,0,0,0,.11-.52.94.94,0,0,0-.09-.43,1.09,1.09,0,0,0-.23-.3,1.69,1.69,0,0,0-.31-.21l-.35-.16a2.25,2.25,0,0,1-.31-.16.73.73,0,0,1-.23-.19.44.44,0,0,1-.09-.27.37.37,0,0,1,.09-.26.49.49,0,0,1,.24-.15,1.14,1.14,0,0,1,.33-.05l.15,0,.21,0,.2.06.16.07.06-.6-.41-.1a2.15,2.15,0,0,0-.45,0,1.7,1.7,0,0,0-.51.07,1.38,1.38,0,0,0-.42.21,1,1,0,0,0-.28.36,1.27,1.27,0,0,0-.1.5.8.8,0,0,0,.09.39.89.89,0,0,0,.23.28,2.11,2.11,0,0,0,.31.21l.35.17.31.17a.76.76,0,0,1,.23.2.37.37,0,0,1,.09.25.49.49,0,0,1-.06.25.52.52,0,0,1-.17.16.92.92,0,0,1-.23.09l-.24,0-.25,0-.3-.09a2.09,2.09,0,0,1-.3-.14l0,.61Z"
     transform="translate(-30.68 -118.69)"
     id="path74"
     style="fill:#000000" />
  <path
     class="cls-1"
     d="M107,173.41l-.24-.07-.29-.05-.3,0a2.21,2.21,0,0,0-.78.14,1.65,1.65,0,0,0-.59.41,1.77,1.77,0,0,0-.39.61,2.22,2.22,0,0,0-.13.79,1.93,1.93,0,0,0,.52,1.37,1.81,1.81,0,0,0,.6.42,1.92,1.92,0,0,0,.77.15h.27l.3,0,.29-.1,0-.61-.23.11a.84.84,0,0,1-.26.07,1.07,1.07,0,0,1-.25,0,1.3,1.3,0,0,1-.46-.08,1.1,1.1,0,0,1-.35-.22,1.08,1.08,0,0,1-.24-.32,1.28,1.28,0,0,1-.14-.37,1.9,1.9,0,0,1,0-.4,1.77,1.77,0,0,1,.08-.52,1.5,1.5,0,0,1,.24-.45,1.12,1.12,0,0,1,.37-.31,1.07,1.07,0,0,1,.51-.12,2.47,2.47,0,0,1,.36,0l.38.12.06-.57Z"
     transform="translate(-30.68 -118.69)"
     id="path76"
     style="fill:#000000" />
  <path
     class="cls-1"
     d="M107.79,177.08h.68v-1.73a3,3,0,0,1,.07-.62,1.49,1.49,0,0,1,.21-.48.87.87,0,0,1,.35-.31,1,1,0,0,1,.5-.12.86.86,0,0,1,.48.17.89.89,0,0,1,.24.44,2.92,2.92,0,0,1,.07.72v1.93h.69v-2.21a2.21,2.21,0,0,0-.15-.86,1.13,1.13,0,0,0-.46-.55,1.66,1.66,0,0,0-1.48,0,1.3,1.3,0,0,0-.5.46h0v-2.28h-.68v5.47Z"
     transform="translate(-30.68 -118.69)"
     id="path78"
     style="fill:#000000" />
  <path
     class="cls-1"
     d="M115.1,176.24l-.19.11a1,1,0,0,1-.28.12,2.07,2.07,0,0,1-.33.1,1.45,1.45,0,0,1-.35,0,1.18,1.18,0,0,1-.46-.09,1.16,1.16,0,0,1-.39-.26.91.91,0,0,1-.27-.39,1.18,1.18,0,0,1-.1-.5h2.65a4.25,4.25,0,0,0-.08-.83,2.14,2.14,0,0,0-.27-.67,1.28,1.28,0,0,0-.51-.44,1.67,1.67,0,0,0-.78-.16,1.89,1.89,0,0,0-.72.14,1.63,1.63,0,0,0-.55.39,1.65,1.65,0,0,0-.35.59,2.29,2.29,0,0,0-.12.76,2.73,2.73,0,0,0,.11.83,1.93,1.93,0,0,0,.35.63,1.6,1.6,0,0,0,.6.41,2.5,2.5,0,0,0,.86.14,2.62,2.62,0,0,0,.52,0l.37-.09.29-.11v-.68Zm-2.37-1.38a1.76,1.76,0,0,1,.08-.37,1.06,1.06,0,0,1,.18-.33.89.89,0,0,1,.3-.24,1,1,0,0,1,.43-.1,1,1,0,0,1,.4.08.92.92,0,0,1,.29.23.88.88,0,0,1,.18.33,1.29,1.29,0,0,1,.06.4Z"
     transform="translate(-30.68 -118.69)"
     id="path80"
     style="fill:#000000" />
  <path
     class="cls-1"
     d="M122.35,172h-.73v2.88a3.4,3.4,0,0,1-.06.67,1.35,1.35,0,0,1-.21.52,1,1,0,0,1-.38.34,1.34,1.34,0,0,1-.6.12,1.32,1.32,0,0,1-.59-.12.9.9,0,0,1-.38-.34,1.35,1.35,0,0,1-.21-.52,3.4,3.4,0,0,1-.06-.67V172h-.73v3a2.82,2.82,0,0,0,.23,1.2,1.63,1.63,0,0,0,.68.74,2.39,2.39,0,0,0,2.13,0,1.63,1.63,0,0,0,.68-.74,2.82,2.82,0,0,0,.23-1.2v-3Z"
     transform="translate(-30.68 -118.69)"
     id="path82"
     style="fill:#000000" />
  <path
     class="cls-1"
     d="M123.58,177.08h.69V175.2a2.94,2.94,0,0,1,0-.51,1.92,1.92,0,0,1,.17-.44.92.92,0,0,1,.31-.31.79.79,0,0,1,.45-.12.56.56,0,0,1,.33.1.64.64,0,0,1,.21.25,1.15,1.15,0,0,1,.09.33,2.19,2.19,0,0,1,0,.36v2.22h.68V175.2a2.22,2.22,0,0,1,.06-.51,1.55,1.55,0,0,1,.17-.44,1,1,0,0,1,.3-.31.84.84,0,0,1,.45-.12.6.6,0,0,1,.34.1.62.62,0,0,1,.2.25,1.15,1.15,0,0,1,.1.33,2.19,2.19,0,0,1,0,.36v2.22h.68v-2.39a2,2,0,0,0-.07-.56,1.06,1.06,0,0,0-.22-.45.94.94,0,0,0-.4-.3,1.5,1.5,0,0,0-.6-.11,1.06,1.06,0,0,0-.29,0,1.15,1.15,0,0,0-.32.12,1.54,1.54,0,0,0-.3.22,1.16,1.16,0,0,0-.24.34,1.22,1.22,0,0,0-.27-.41,1.12,1.12,0,0,0-.37-.24,1.16,1.16,0,0,0-.42-.07,1.54,1.54,0,0,0-.7.15,1.23,1.23,0,0,0-.48.48h0v-.54h-.64v3.72Z"
     transform="translate(-30.68 -118.69)"
     id="path84"
     style="fill:#000000" />
  <polygon
     class="cls-1"
     points="104.79 54.66 104.12 54.66 103.22 57.74 103.2 57.74 102.27 54.66 101.46 54.66 100.51 57.74 100.5 57.74 99.64 54.66 98.89 54.66 100.09 58.38 100.88 58.38 101.83 55.26 101.84 55.26 102.8 58.38 103.6 58.38 104.79 54.66 104.79 54.66"
     id="polygon86"
     style="fill:#000000" />
  <path
     class="cls-1"
     d="M139,176.24l-.19.11a1,1,0,0,1-.28.12,1.59,1.59,0,0,1-.33.1,1.39,1.39,0,0,1-.35,0,1.18,1.18,0,0,1-.46-.09,1.16,1.16,0,0,1-.39-.26.91.91,0,0,1-.27-.39,1.18,1.18,0,0,1-.1-.5h2.65a3.6,3.6,0,0,0-.08-.83,2.14,2.14,0,0,0-.27-.67,1.28,1.28,0,0,0-.51-.44,1.67,1.67,0,0,0-.78-.16,1.8,1.8,0,0,0-.71.14,1.45,1.45,0,0,0-.55.39,1.67,1.67,0,0,0-.36.59,2.29,2.29,0,0,0-.12.76,3.09,3.09,0,0,0,.11.83,1.79,1.79,0,0,0,.36.63,1.46,1.46,0,0,0,.6.41,2.4,2.4,0,0,0,.85.14,2.55,2.55,0,0,0,.52,0l.37-.09.29-.11v-.68Zm-2.37-1.38a1.76,1.76,0,0,1,.08-.37.92.92,0,0,1,.19-.33.73.73,0,0,1,.3-.24.94.94,0,0,1,.43-.1,1,1,0,0,1,.39.08.82.82,0,0,1,.29.23.88.88,0,0,1,.18.33,1.29,1.29,0,0,1,.06.4Z"
     transform="translate(-30.68 -118.69)"
     id="path88"
     style="fill:#000000" />
  <polygon
     class="cls-1"
     points="109.61 58.38 110.29 58.38 110.29 52.91 109.61 52.91 109.61 58.38 109.61 58.38"
     id="polygon90"
     style="fill:#000000" />
  <path
     class="cls-1"
     d="M144.2,173.36h-1v-1.08l-.69.22v.86h-.83v.55h.83v2.17a1.34,1.34,0,0,0,.14.61.93.93,0,0,0,.4.36,1.42,1.42,0,0,0,.61.11,1.48,1.48,0,0,0,.31,0l.27-.07v-.58l-.19.09a1.1,1.1,0,0,1-.27,0,.55.55,0,0,1-.29-.08.5.5,0,0,1-.21-.22.8.8,0,0,1-.08-.36v-2h1v-.55Z"
     transform="translate(-30.68 -118.69)"
     id="path92"
     style="fill:#000000" />
  <path
     class="cls-1"
     d="M145.51,177.08h.68v-3.17h1v-.55h-1V173a1.83,1.83,0,0,1,0-.35.71.71,0,0,1,.08-.28.48.48,0,0,1,.21-.19.8.8,0,0,1,.35-.07H147l.15,0,0-.56-.22,0h-.24a1.85,1.85,0,0,0-.63.1,1,1,0,0,0-.38.31,1.33,1.33,0,0,0-.19.47,2.9,2.9,0,0,0-.05.61v.35h-.88v.55h.88v3.17Z"
     transform="translate(-30.68 -118.69)"
     id="path94"
     style="fill:#000000" />
  <path
     class="cls-1"
     d="M147.65,175.22a2.12,2.12,0,0,0,.14.75,1.91,1.91,0,0,0,.39.62,1.81,1.81,0,0,0,.6.42,1.92,1.92,0,0,0,.77.15,1.87,1.87,0,0,0,.76-.15,1.71,1.71,0,0,0,.6-.42,1.91,1.91,0,0,0,.39-.62,2.12,2.12,0,0,0,.14-.75,2.22,2.22,0,0,0-.14-.79,1.91,1.91,0,0,0-.38-.61,1.78,1.78,0,0,0-.6-.41,2.22,2.22,0,0,0-1.55,0,1.78,1.78,0,0,0-.6.41,1.91,1.91,0,0,0-.38.61,2.22,2.22,0,0,0-.14.79Zm.73,0a1.77,1.77,0,0,1,.08-.52,1.47,1.47,0,0,1,.23-.45,1.12,1.12,0,0,1,.37-.31,1,1,0,0,1,.49-.12,1,1,0,0,1,.49.12,1.19,1.19,0,0,1,.36.31,1.47,1.47,0,0,1,.23.45,1.77,1.77,0,0,1,.08.52,1.9,1.9,0,0,1-.05.4,1.63,1.63,0,0,1-.13.37,1,1,0,0,1-.23.32,1.21,1.21,0,0,1-.32.22,1.18,1.18,0,0,1-.43.08,1.14,1.14,0,0,1-.43-.08,1.12,1.12,0,0,1-.33-.22,1.38,1.38,0,0,1-.36-.69,1.9,1.9,0,0,1-.05-.4Z"
     transform="translate(-30.68 -118.69)"
     id="path96"
     style="fill:#000000" />
  <path
     class="cls-1"
     d="M152.36,177.08H153v-1.7a2.35,2.35,0,0,1,.13-.8,1.15,1.15,0,0,1,.35-.53.83.83,0,0,1,.53-.18h.19l.19.05v-.61l-.13,0H154a.85.85,0,0,0-.38.09,1,1,0,0,0-.34.23,1.2,1.2,0,0,0-.25.34h0v-.57h-.64v3.72Z"
     transform="translate(-30.68 -118.69)"
     id="path98"
     style="fill:#000000" />
  <path
     class="cls-1"
     d="M154.88,177a1.46,1.46,0,0,0,.5.16,2.24,2.24,0,0,0,.52,0,1.51,1.51,0,0,0,.48-.07,1.11,1.11,0,0,0,.42-.21.94.94,0,0,0,.29-.36,1.21,1.21,0,0,0,.11-.52.94.94,0,0,0-.09-.43,1.33,1.33,0,0,0-.23-.3,1.77,1.77,0,0,0-.32-.21l-.34-.16a2.25,2.25,0,0,1-.31-.16.78.78,0,0,1-.24-.19.5.5,0,0,1-.08-.27.37.37,0,0,1,.09-.26.49.49,0,0,1,.24-.15,1,1,0,0,1,.32-.05l.16,0,.21,0,.2.06.15.07.06-.6-.4-.1a2.15,2.15,0,0,0-.45,0,1.72,1.72,0,0,0-.52.07,1.32,1.32,0,0,0-.41.21.9.9,0,0,0-.28.36,1.12,1.12,0,0,0-.1.5.8.8,0,0,0,.09.39.77.77,0,0,0,.23.28,1.69,1.69,0,0,0,.31.21l.34.17.32.17a.9.9,0,0,1,.23.2.37.37,0,0,1,.09.25.48.48,0,0,1-.23.41.92.92,0,0,1-.23.09l-.24,0-.25,0-.31-.09-.29-.14,0,.61Z"
     transform="translate(-30.68 -118.69)"
     id="path100"
     style="fill:#000000" />
  <path
     class="cls-1"
     d="M160.45,173.41l-.24-.07-.3-.05-.29,0a2.13,2.13,0,0,0-.78.14,1.78,1.78,0,0,0-.6.41,1.91,1.91,0,0,0-.38.61,2.22,2.22,0,0,0-.14.79,2.12,2.12,0,0,0,.14.75,1.91,1.91,0,0,0,.39.62,1.81,1.81,0,0,0,.6.42,1.92,1.92,0,0,0,.77.15h.27l.29,0,.3-.1,0-.61a1.33,1.33,0,0,1-.24.11.72.72,0,0,1-.25.07l-.25,0a1.36,1.36,0,0,1-.47-.08,1.38,1.38,0,0,1-.35-.22,1.57,1.57,0,0,1-.24-.32,1.63,1.63,0,0,1-.13-.37,1.9,1.9,0,0,1-.05-.4,1.77,1.77,0,0,1,.08-.52,1.47,1.47,0,0,1,.23-.45,1.15,1.15,0,0,1,.38-.31,1.07,1.07,0,0,1,.51-.12,2.21,2.21,0,0,1,.35,0,2.91,2.91,0,0,1,.39.12l.06-.57Z"
     transform="translate(-30.68 -118.69)"
     id="path102"
     style="fill:#000000" />
  <path
     class="cls-1"
     d="M161.27,177.08H162v-1.73a2.45,2.45,0,0,1,.07-.62,1.48,1.48,0,0,1,.2-.48.89.89,0,0,1,.36-.31,1,1,0,0,1,.5-.12.8.8,0,0,1,.47.17.83.83,0,0,1,.25.44,2.92,2.92,0,0,1,.07.72v1.93h.68v-2.21a2,2,0,0,0-.14-.86,1.13,1.13,0,0,0-.46-.55,1.45,1.45,0,0,0-.79-.19,1.47,1.47,0,0,0-.7.16,1.27,1.27,0,0,0-.49.46h0v-2.28h-.68v5.47Z"
     transform="translate(-30.68 -118.69)"
     id="path104"
     style="fill:#000000" />
  <path
     class="cls-1"
     d="M169,173.36h-.69v1.72a3,3,0,0,1-.06.62,1.51,1.51,0,0,1-.21.48,1,1,0,0,1-.35.32,1.13,1.13,0,0,1-.51.11.79.79,0,0,1-.47-.17.85.85,0,0,1-.24-.44,2.92,2.92,0,0,1-.07-.72v-1.92h-.69v2.21a2.15,2.15,0,0,0,.15.85,1.13,1.13,0,0,0,.46.55,1.41,1.41,0,0,0,.78.19,1.59,1.59,0,0,0,.5-.08,1.27,1.27,0,0,0,.43-.23,1,1,0,0,0,.29-.37h0v.6H169v-3.72Z"
     transform="translate(-30.68 -118.69)"
     id="path106"
     style="fill:#000000" />
  <path
     class="cls-1"
     d="M170.18,177.08h.68v-1.73a2.45,2.45,0,0,1,.07-.62,1.48,1.48,0,0,1,.2-.48.89.89,0,0,1,.36-.31,1,1,0,0,1,.5-.12.8.8,0,0,1,.47.17.83.83,0,0,1,.25.44,2.92,2.92,0,0,1,.07.72v1.93h.69v-2.21a2.21,2.21,0,0,0-.15-.86,1.13,1.13,0,0,0-.46-.55,1.45,1.45,0,0,0-.79-.19,1.69,1.69,0,0,0-.5.08,1.42,1.42,0,0,0-.42.23,1,1,0,0,0-.3.37h0v-.59h-.66v3.72Z"
     transform="translate(-30.68 -118.69)"
     id="path108"
     style="fill:#000000" />
  <path
     class="cls-1"
     d="M177.92,173.36h-.63v.55h0a1.1,1.1,0,0,0-.26-.34,1,1,0,0,0-.4-.22,1.89,1.89,0,0,0-.56-.08,1.66,1.66,0,0,0-.61.11,1.49,1.49,0,0,0-.46.31,1.45,1.45,0,0,0-.33.45,1.87,1.87,0,0,0-.2.53,2.79,2.79,0,0,0-.07.58,2.61,2.61,0,0,0,.1.69,1.88,1.88,0,0,0,.3.58,1.31,1.31,0,0,0,.5.4,1.67,1.67,0,0,0,.69.16,1.84,1.84,0,0,0,.47-.07,1.28,1.28,0,0,0,.43-.19,1.34,1.34,0,0,0,.35-.32h0v.36a1.56,1.56,0,0,1-.13.68,1,1,0,0,1-.4.44,1.12,1.12,0,0,1-.62.16l-.34,0a1.65,1.65,0,0,1-.32-.06,2.33,2.33,0,0,1-.32-.1l-.36-.16-.07.64.52.16a3.67,3.67,0,0,0,.42.07,2.55,2.55,0,0,0,.39,0,2.43,2.43,0,0,0,1.09-.21,1.31,1.31,0,0,0,.63-.6,2.21,2.21,0,0,0,.2-1v-3.55Zm-1.77,3.16a.86.86,0,0,1-.43-.11,1,1,0,0,1-.33-.28,1.38,1.38,0,0,1-.21-.42,2.08,2.08,0,0,1-.07-.5,2.58,2.58,0,0,1,0-.39,1.63,1.63,0,0,1,.13-.37,1.16,1.16,0,0,1,.2-.32.81.81,0,0,1,.3-.22.75.75,0,0,1,.37-.09,1,1,0,0,1,.48.12,1,1,0,0,1,.34.31,1.6,1.6,0,0,1,.2.46,2.44,2.44,0,0,1,.06.55,1.57,1.57,0,0,1-.07.49,1.44,1.44,0,0,1-.23.4.89.89,0,0,1-.34.27.92.92,0,0,1-.44.1Z"
     transform="translate(-30.68 -118.69)"
     id="path110"
     style="fill:#000000" />
  <path
     class="cls-2"
     d="M114.24,121.1l-53,25a.42.42,0,0,1-.59-.2.52.52,0,0,1,.26-.67l51.71-26.53.82,1.21.82,1.2Z"
     transform="translate(-30.68 -118.69)"
     id="path112"
     style="fill:#000000" />
  <path
     class="cls-2"
     d="M116.61,123.75,69,146.09a.42.42,0,0,1-.59-.2.52.52,0,0,1,.25-.67L115,121.34l.82,1.21.82,1.2Z"
     transform="translate(-30.68 -118.69)"
     id="path114"
     style="fill:#000000" />
  <path
     class="cls-2"
     d="M118.09,126.71,76.51,146.09a.42.42,0,0,1-.59-.2.5.5,0,0,1,.25-.67l40.27-20.91.83,1.2.82,1.2Z"
     transform="translate(-30.68 -118.69)"
     id="path116"
     style="fill:#000000" />
  <path
     class="cls-2"
     d="M120.25,129.33,84,146.09a.42.42,0,0,1-.59-.2.5.5,0,0,1,.25-.67l34.93-18.3.82,1.21.82,1.2Z"
     transform="translate(-30.68 -118.69)"
     id="path118"
     style="fill:#000000" />
  <path
     class="cls-2"
     d="M123.8,131.25,91.31,146.09a.42.42,0,0,1-.59-.2.5.5,0,0,1,.25-.67l31.19-16.38.82,1.21.82,1.2Z"
     transform="translate(-30.68 -118.69)"
     id="path120"
     style="fill:#000000" />
  <path
     class="cls-2"
     d="M127,133.34,98.86,146.09a.42.42,0,0,1-.59-.2.5.5,0,0,1,.25-.67l26.87-14.29.82,1.21.82,1.2Z"
     transform="translate(-30.68 -118.69)"
     id="path122"
     style="fill:#000000" />
  <path
     class="cls-2"
     d="M130.43,135.35l-24,10.74a.42.42,0,0,1-.59-.2.52.52,0,0,1,.26-.67l22.69-12.28.82,1.2.82,1.21Z"
     transform="translate(-30.68 -118.69)"
     id="path124"
     style="fill:#000000" />
  <path
     class="cls-2"
     d="M134.4,137.07l-20.56,9a.42.42,0,0,1-.59-.2.5.5,0,0,1,.25-.67l19.26-10.55.82,1.2.82,1.2Z"
     transform="translate(-30.68 -118.69)"
     id="path126"
     style="fill:#000000" />
  <path
     class="cls-2"
     d="M138.32,138.82l-17,7.27a.43.43,0,0,1-.6-.2.52.52,0,0,1,.26-.67l15.72-8.8.82,1.2.82,1.2Z"
     transform="translate(-30.68 -118.69)"
     id="path128"
     style="fill:#000000" />
  <path
     class="cls-2"
     d="M142.87,140.26l-14.12,5.83a.42.42,0,0,1-.59-.2.51.51,0,0,1,.25-.67l12.82-7.36.82,1.2.82,1.2Z"
     transform="translate(-30.68 -118.69)"
     id="path130"
     style="fill:#000000" />
  <path
     class="cls-2"
     d="M146.57,142.25l-10.08,3.84a.42.42,0,0,1-.59-.2.5.5,0,0,1,.25-.67l8.78-5.37.82,1.2.82,1.2Z"
     transform="translate(-30.68 -118.69)"
     id="path132"
     style="fill:#000000" />
  <path
     class="cls-2"
     d="M149.69,144.4,144,146.09a.42.42,0,0,1-.59-.2.52.52,0,0,1,.26-.67l4.37-3.23.82,1.21.82,1.2Z"
     transform="translate(-30.68 -118.69)"
     id="path134"
     style="fill:#000000" />
</svg>
