<?xml version="1.0" encoding="UTF-8" standalone="no"?>
<!-- Created with Inkscape (http://www.inkscape.org/) -->

<svg
   xmlns:dc="http://purl.org/dc/elements/1.1/"
   xmlns:cc="http://creativecommons.org/ns#"
   xmlns:rdf="http://www.w3.org/1999/02/22-rdf-syntax-ns#"
   xmlns:svg="http://www.w3.org/2000/svg"
   xmlns="http://www.w3.org/2000/svg"
   xmlns:sodipodi="http://sodipodi.sourceforge.net/DTD/sodipodi-0.dtd"
   xmlns:inkscape="http://www.inkscape.org/namespaces/inkscape"
   width="159.66924mm"
   height="102.06213mm"
   viewBox="0 0 159.66924 102.06213"
   version="1.1"
   id="svg8"
   inkscape:version="0.92.4 (5da689c313, 2019-01-14)"
   sodipodi:docname="auth-full.svg">
  <defs
     id="defs2">
    <marker
       inkscape:stockid="TriangleOutM"
       orient="auto"
       refY="0"
       refX="0"
       id="marker6160"
       style="overflow:visible"
       inkscape:isstock="true">
      <path
         id="path6158"
         d="M 5.77,0 -2.88,5 V -5 Z"
         style="fill:#000000;fill-opacity:1;fill-rule:evenodd;stroke:#000000;stroke-width:1.00000003pt;stroke-opacity:1"
         transform="scale(0.4)"
         inkscape:connector-curvature="0" />
    </marker>
    <marker
       inkscape:stockid="TriangleOutM"
       orient="auto"
       refY="0"
       refX="0"
       id="marker4987"
       style="overflow:visible"
       inkscape:isstock="true">
      <path
         id="path4985"
         d="M 5.77,0 -2.88,5 V -5 Z"
         style="fill:#000000;fill-opacity:1;fill-rule:evenodd;stroke:#000000;stroke-width:1.00000003pt;stroke-opacity:1"
         transform="scale(0.4)"
         inkscape:connector-curvature="0" />
    </marker>
    <marker
       inkscape:isstock="true"
       style="overflow:visible"
       id="marker4687"
       refX="0"
       refY="0"
       orient="auto"
       inkscape:stockid="TriangleOutM">
      <path
         transform="scale(0.4)"
         style="fill:#000000;fill-opacity:1;fill-rule:evenodd;stroke:#000000;stroke-width:1.00000003pt;stroke-opacity:1"
         d="M 5.77,0 -2.88,5 V -5 Z"
         id="path4685"
         inkscape:connector-curvature="0" />
    </marker>
    <marker
       inkscape:stockid="TriangleOutM"
       orient="auto"
       refY="0"
       refX="0"
       id="marker4285"
       style="overflow:visible"
       inkscape:isstock="true"
       inkscape:collect="always">
      <path
         id="path4283"
         d="M 5.77,0 -2.88,5 V -5 Z"
         style="fill:#000000;fill-opacity:1;fill-rule:evenodd;stroke:#000000;stroke-width:1.00000003pt;stroke-opacity:1"
         transform="scale(0.4)"
         inkscape:connector-curvature="0" />
    </marker>
    <marker
       inkscape:isstock="true"
       style="overflow:visible"
       id="marker3817"
       refX="0"
       refY="0"
       orient="auto"
       inkscape:stockid="TriangleOutM"
       inkscape:collect="always">
      <path
         transform="scale(0.4)"
         style="fill:#000000;fill-opacity:1;fill-rule:evenodd;stroke:#000000;stroke-width:1.00000003pt;stroke-opacity:1"
         d="M 5.77,0 -2.88,5 V -5 Z"
         id="path3815"
         inkscape:connector-curvature="0" />
    </marker>
    <marker
       inkscape:stockid="TriangleOutM"
       orient="auto"
       refY="0"
       refX="0"
       id="marker3425"
       style="overflow:visible"
       inkscape:isstock="true"
       inkscape:collect="always">
      <path
         id="path3423"
         d="M 5.77,0 -2.88,5 V -5 Z"
         style="fill:#000000;fill-opacity:1;fill-rule:evenodd;stroke:#000000;stroke-width:1.00000003pt;stroke-opacity:1"
         transform="scale(0.4)"
         inkscape:connector-curvature="0" />
    </marker>
    <marker
       inkscape:isstock="true"
       style="overflow:visible"
       id="marker3047"
       refX="0"
       refY="0"
       orient="auto"
       inkscape:stockid="TriangleOutM"
       inkscape:collect="always">
      <path
         transform="scale(0.4)"
         style="fill:#000000;fill-opacity:1;fill-rule:evenodd;stroke:#000000;stroke-width:1.00000003pt;stroke-opacity:1"
         d="M 5.77,0 -2.88,5 V -5 Z"
         id="path3045"
         inkscape:connector-curvature="0" />
    </marker>
    <marker
       inkscape:isstock="true"
       style="overflow:visible"
       id="marker2599"
       refX="0"
       refY="0"
       orient="auto"
       inkscape:stockid="TriangleOutM">
      <path
         transform="scale(0.4)"
         style="fill:#000000;fill-opacity:1;fill-rule:evenodd;stroke:#000000;stroke-width:1.00000003pt;stroke-opacity:1"
         d="M 5.77,0 -2.88,5 V -5 Z"
         id="path2597"
         inkscape:connector-curvature="0" />
    </marker>
    <marker
       inkscape:stockid="TriangleOutM"
       orient="auto"
       refY="0"
       refX="0"
       id="TriangleOutM"
       style="overflow:visible"
       inkscape:isstock="true"
       inkscape:collect="always">
      <path
         id="path982"
         d="M 5.77,0 -2.88,5 V -5 Z"
         style="fill:#000000;fill-opacity:1;fill-rule:evenodd;stroke:#000000;stroke-width:1.00000003pt;stroke-opacity:1"
         transform="scale(0.4)"
         inkscape:connector-curvature="0" />
    </marker>
    <marker
       inkscape:stockid="Arrow2Send"
       orient="auto"
       refY="0"
       refX="0"
       id="Arrow2Send"
       style="overflow:visible"
       inkscape:isstock="true">
      <path
         id="path870"
         style="fill:#000000;fill-opacity:1;fill-rule:evenodd;stroke:#000000;stroke-width:0.625;stroke-linejoin:round;stroke-opacity:1"
         d="M 8.7185878,4.0337352 -2.2072895,0.01601326 8.7185884,-4.0017078 c -1.7454984,2.3720609 -1.7354408,5.6174519 -6e-7,8.035443 z"
         transform="matrix(-0.3,0,0,-0.3,0.69,0)"
         inkscape:connector-curvature="0" />
    </marker>
    <marker
       inkscape:stockid="Arrow1Send"
       orient="auto"
       refY="0"
       refX="0"
       id="Arrow1Send"
       style="overflow:visible"
       inkscape:isstock="true">
      <path
         id="path852"
         d="M 0,0 5,-5 -12.5,0 5,5 Z"
         style="fill:#000000;fill-opacity:1;fill-rule:evenodd;stroke:#000000;stroke-width:1.00000003pt;stroke-opacity:1"
         transform="matrix(-0.2,0,0,-0.2,-1.2,0)"
         inkscape:connector-curvature="0" />
    </marker>
    <marker
       inkscape:stockid="Arrow1Lend"
       orient="auto"
       refY="0"
       refX="0"
       id="Arrow1Lend"
       style="overflow:visible"
       inkscape:isstock="true">
      <path
         id="path840"
         d="M 0,0 5,-5 -12.5,0 5,5 Z"
         style="fill:#000000;fill-opacity:1;fill-rule:evenodd;stroke:#000000;stroke-width:1.00000003pt;stroke-opacity:1"
         transform="matrix(-0.8,0,0,-0.8,-10,0)"
         inkscape:connector-curvature="0" />
    </marker>
    <marker
       inkscape:isstock="true"
       style="overflow:visible"
       id="marker4687-2"
       refX="0"
       refY="0"
       orient="auto"
       inkscape:stockid="TriangleOutM"
       inkscape:collect="always">
      <path
         inkscape:connector-curvature="0"
         transform="scale(0.4)"
         style="fill:#000000;fill-opacity:1;fill-rule:evenodd;stroke:#000000;stroke-width:1.00000003pt;stroke-opacity:1"
         d="M 5.77,0 -2.88,5 V -5 Z"
         id="path4685-6" />
    </marker>
  </defs>
  <sodipodi:namedview
     id="base"
     pagecolor="#ffffff"
     bordercolor="#666666"
     borderopacity="1.0"
     inkscape:pageopacity="0.0"
     inkscape:pageshadow="2"
     inkscape:zoom="0.98994949"
     inkscape:cx="330.28365"
     inkscape:cy="80.351565"
     inkscape:document-units="mm"
     inkscape:current-layer="layer1"
     showgrid="false"
     inkscape:window-width="2560"
     inkscape:window-height="1440"
     inkscape:window-x="0"
     inkscape:window-y="0"
     inkscape:window-maximized="0" />
  <metadata
     id="metadata5">
    <rdf:RDF>
      <cc:Work
         rdf:about="">
        <dc:format>image/svg+xml</dc:format>
        <dc:type
           rdf:resource="http://purl.org/dc/dcmitype/StillImage" />
        <dc:title />
      </cc:Work>
    </rdf:RDF>
  </metadata>
  <g
     inkscape:label="Layer 1"
     inkscape:groupmode="layer"
     id="layer1"
     transform="translate(-60.767544,-135.65085)">
    <g
       id="g6953">
      <text
         id="text817"
         y="165.67827"
         x="59.868374"
         style="font-style:normal;font-variant:normal;font-weight:normal;font-stretch:normal;font-size:10.58333302px;line-height:1.25;font-family:'Open Sans';-inkscape-font-specification:'Open Sans';letter-spacing:0px;word-spacing:0px;fill:#000000;fill-opacity:1;stroke:none;stroke-width:0.26458332"
         xml:space="preserve"><tspan
           style="font-weight:bold;stroke-width:0.26458332"
           y="165.67827"
           x="59.868374"
           id="tspan815"
           sodipodi:role="line">User</tspan></text>
      <text
         xml:space="preserve"
         style="font-style:normal;font-variant:normal;font-weight:normal;font-stretch:normal;font-size:10.58333302px;line-height:1.25;font-family:'Open Sans';-inkscape-font-specification:'Open Sans';letter-spacing:0px;word-spacing:0px;fill:#000000;fill-opacity:1;stroke:none;stroke-width:0.26458332"
         x="106.37327"
         y="165.78679"
         id="text821"><tspan
           sodipodi:role="line"
           id="tspan819"
           x="106.37327"
           y="165.78679"
           style="font-weight:bold;stroke-width:0.26458332">Server</tspan></text>
      <text
         id="text825"
         y="166.16403"
         x="164.90529"
         style="font-style:normal;font-variant:normal;font-weight:normal;font-stretch:normal;font-size:10.58333302px;line-height:1.25;font-family:'Open Sans';-inkscape-font-specification:'Open Sans';letter-spacing:0px;word-spacing:0px;fill:#000000;fill-opacity:1;stroke:none;stroke-width:0.26458332"
         xml:space="preserve"><tspan
           style="font-weight:bold;stroke-width:0.26458332"
           y="166.16403"
           x="164.90529"
           id="tspan823"
           sodipodi:role="line">Filesystem</tspan></text>
      <path
         inkscape:connector-curvature="0"
         id="path835"
         d="m 76.073663,151.77707 c 18.111362,-14.42875 35.705257,0.11731 35.705257,0.11731"
         style="fill:none;stroke:#000000;stroke-width:1.04100001;stroke-linecap:butt;stroke-linejoin:miter;stroke-miterlimit:4;stroke-dasharray:none;stroke-opacity:1;marker-end:url(#TriangleOutM)" />
      <path
         style="fill:none;stroke:#000000;stroke-width:1.04100001;stroke-linecap:butt;stroke-linejoin:miter;stroke-miterlimit:4;stroke-dasharray:none;stroke-opacity:1;marker-end:url(#marker2599)"
         d="m 137.27839,152.04434 c 18.11136,-14.42875 35.70525,0.11731 35.70525,0.11731"
         id="path2595"
         inkscape:connector-curvature="0" />
      <text
         id="text2951"
         y="141.75742"
         x="83.536018"
         style="font-style:normal;font-variant:normal;font-weight:normal;font-stretch:normal;font-size:8.03743553px;line-height:1.25;font-family:'Open Sans';-inkscape-font-specification:'Open Sans';letter-spacing:0px;word-spacing:0px;fill:#000000;fill-opacity:1;stroke:none;stroke-width:0.20093589"
         xml:space="preserve"><tspan
           style="font-weight:bold;stroke-width:0.20093589"
           y="141.75742"
           x="83.536018"
           id="tspan2949"
           sodipodi:role="line">OIDC</tspan></text>
      <path
         style="fill:none;stroke:#000000;stroke-width:1.04100001;stroke-linecap:butt;stroke-linejoin:miter;stroke-miterlimit:4;stroke-dasharray:none;stroke-opacity:1;marker-end:url(#marker3047)"
         d="m 76.073663,174.14352 c 18.111362,14.42875 35.705257,-0.11731 35.705257,-0.11731"
         id="path3043"
         inkscape:connector-curvature="0" />
      <path
         inkscape:connector-curvature="0"
         id="path3421"
         d="m 137.81292,174.14352 c 18.11137,14.42875 35.70526,-0.11731 35.70526,-0.11731"
         style="fill:none;stroke:#000000;stroke-width:1.04100001;stroke-linecap:butt;stroke-linejoin:miter;stroke-miterlimit:4;stroke-dasharray:none;stroke-opacity:1;marker-end:url(#marker3425)" />
      <text
         xml:space="preserve"
         style="font-style:normal;font-variant:normal;font-weight:normal;font-stretch:normal;font-size:8.03743553px;line-height:1.25;font-family:'Open Sans';-inkscape-font-specification:'Open Sans';letter-spacing:0px;word-spacing:0px;fill:#000000;fill-opacity:1;stroke:none;stroke-width:0.20093589"
         x="142.86986"
         y="141.75742"
         id="text3777"><tspan
           sodipodi:role="line"
           id="tspan3775"
           x="142.86986"
           y="141.75742"
           style="font-weight:bold;stroke-width:0.20093589">OAuth</tspan></text>
      <text
         id="text3785"
         y="224.05154"
         x="100.22606"
         style="font-style:normal;font-variant:normal;font-weight:normal;font-stretch:normal;font-size:10.58333302px;line-height:1.25;font-family:'Open Sans';-inkscape-font-specification:'Open Sans';letter-spacing:0px;word-spacing:0px;fill:#000000;fill-opacity:1;stroke:none;stroke-width:0.26458332"
         xml:space="preserve"><tspan
           style="font-weight:bold;stroke-width:0.26458332"
           y="224.05154"
           x="100.22606"
           id="tspan3783"
           sodipodi:role="line">Identity</tspan><tspan
           id="tspan3787"
           style="font-weight:bold;stroke-width:0.26458332"
           y="237.28072"
           x="100.22606"
           sodipodi:role="line">Provider</tspan></text>
      <path
         inkscape:connector-curvature="0"
         id="path3801"
         d="m 118.13313,172.18513 v 36.61592"
         style="fill:none;stroke:#000000;stroke-width:1.04100001;stroke-linecap:butt;stroke-linejoin:miter;stroke-miterlimit:4;stroke-dasharray:none;stroke-opacity:1;marker-end:url(#marker3817)" />
      <path
         style="fill:none;stroke:#000000;stroke-width:1.04100001;stroke-linecap:butt;stroke-linejoin:miter;stroke-miterlimit:4;stroke-dasharray:none;stroke-opacity:1;marker-end:url(#marker4285)"
         d="M 98.626798,214.18562 80.318838,182.4753"
         id="path4281"
         inkscape:connector-curvature="0" />
      <path
         inkscape:connector-curvature="0"
         id="path4683"
         d="m 73.942917,186.05436 18.30796,31.71032"
         style="fill:none;stroke:#000000;stroke-width:1.04100001;stroke-linecap:butt;stroke-linejoin:miter;stroke-miterlimit:4;stroke-dasharray:none;stroke-opacity:1;marker-end:url(#marker4687)" />
      <path
         style="fill:none;stroke:#000000;stroke-width:1.04100001;stroke-linecap:butt;stroke-linejoin:miter;stroke-miterlimit:4;stroke-dasharray:none;stroke-opacity:1;marker-end:url(#marker4987)"
         d="M 125.08214,211.75839 V 175.14247"
         id="path4983"
         inkscape:connector-curvature="0" />
      <g
         transform="matrix(0.19758154,0,0,0.19758154,154.53063,178.28271)"
         id="g5413">
        <path
           inkscape:connector-curvature="0"
           style="fill:#000000;fill-rule:evenodd;stroke-width:0.26458332"
           d="M 304.23896,182.12218 H 243.24874 V 202.895 h 17.83234 v 71.61375 h 25.32564 V 202.895 h 17.83224 z m -67.06083,92.29168 h -25.32571 v -92.29168 h 25.32571 z m -29.59407,0 h -28.17121 l -33.48297,-35.94911 v -20.58306 l 32.43957,-35.85441 h 29.02497 l -37.37196,46.47794 z"
           id="path4" />
        <path
           inkscape:connector-curvature="0"
           style="fill:#000000;fill-rule:evenodd;stroke-width:0.26458332"
           d="M 139.85927,274.41386 Z"
           id="path6" />
        <path
           inkscape:connector-curvature="0"
           style="fill:#000000;fill-rule:evenodd;stroke-width:0.26458332"
           d="M 139.85927,274.41386 Z"
           id="path8" />
        <path
           inkscape:connector-curvature="0"
           style="fill:#32a189;fill-rule:evenodd;stroke-width:0.26458332"
           d="m 67.676424,215.88975 c -4.837531,5.88092 -9.010985,12.33092 -12.236065,19.25514 l 84.418911,39.26897 -72.182844,-58.52411 z"
           id="path10" />
        <path
           inkscape:connector-curvature="0"
           style="fill:#32a189;fill-rule:evenodd;stroke-width:0.26458332"
           d="m 139.85927,274.41386 -39.36382,-83.75489 c -7.019141,3.2249 -13.469079,7.20886 -19.349944,11.95148 z"
           id="path12" />
        <path
           inkscape:connector-curvature="0"
           style="fill:#000000;fill-rule:evenodd;stroke-width:0.26458332"
           d="m 139.85927,274.41386 0.0948,-92.29168 h -0.75875 c -7.4934,0 -14.79706,0.94864 -21.81613,2.65595 z"
           id="path14" />
        <path
           inkscape:connector-curvature="0"
           style="fill:#000000;fill-rule:evenodd;stroke-width:0.26458332"
           d="M 139.85927,274.41386 Z"
           id="path16" />
        <path
           inkscape:connector-curvature="0"
           style="fill:#000000;fill-rule:evenodd;stroke-width:0.26458332"
           d="M 139.85927,274.41386 Z"
           id="path18" />
        <path
           inkscape:connector-curvature="0"
           style="fill:#32a189;fill-rule:evenodd;stroke-width:0.26458332"
           d="m 49.369826,251.83896 c -1.897013,7.20886 -2.845553,14.797 -2.940429,22.5749 h 93.429873 l -90.489442,-22.5749 z"
           id="path20" />
        <path
           inkscape:connector-curvature="0"
           style="fill:#000000;fill-rule:nonzero;stroke-width:0.26458332"
           d="m 305.51441,295.19518 c -0.38157,0.3152 -1.57583,0.84602 -2.60431,0.84602 -1.4767,0 -2.78699,-1.14469 -2.78699,-2.82005 h 6.03826 c 0,-2.72077 -0.9125,-4.77784 -3.73247,-4.77784 -2.38871,0 -3.96499,1.77534 -3.96499,4.28018 0,2.75382 1.3771,4.58129 4.3797,4.58129 1.39323,0 2.07358,-0.33463 2.6708,-0.55026 z m -5.3913,-3.13513 c 0.11611,-1.09497 0.74643,-2.35575 2.27277,-2.35575 1.3436,0 2.10658,1.06159 2.10658,2.35575 z m -5.04625,5.04274 h 1.55932 v -8.46042 h -1.55932 z m 1.65885,-12.10983 h -1.75842 v 1.75843 h 1.75842 z m -99.5941,0.36728 h 1.73331 v 1.76664 h -1.73331 z m 3.70765,0 h 1.73331 v 1.76664 h -1.73331 z m 4.96657,11.74255 h 1.55935 v -3.84857 c 0,-2.12315 0.91244,-3.45033 2.30572,-3.45033 0.26555,0 0.58075,0.0331 0.86287,0.14917 v -1.39332 c -0.33171,-0.0665 -0.56425,-0.11643 -1.02852,-0.11643 -0.89592,0 -1.79186,0.6307 -2.20659,1.50975 h -0.0331 v -1.31069 h -1.45976 v 8.46042 z m -2.21302,-8.66242 h -1.55935 v 3.91502 c 0,2.05708 -0.796,3.48381 -2.57131,3.48381 -1.36024,-0.0831 -1.79145,-1.04509 -1.79145,-3.01912 v -4.37971 h -1.55935 v 5.02663 c 0,2.27261 0.97859,3.63579 3.1686,3.63579 1.17767,0 2.30577,-0.58332 2.77045,-1.54572 h 0.0331 v 1.34372 h 1.50937 v -8.46042 z m -84.07232,8.66242 h 1.55935 v -3.84857 c 0,-2.12315 0.91244,-3.45033 2.30572,-3.45033 0.26556,0 0.58076,0.0331 0.86288,0.14917 v -1.39332 c -0.33172,-0.0665 -0.56426,-0.11643 -1.02853,-0.11643 -0.89592,0 -1.79186,0.6307 -2.20658,1.50975 h -0.0331 v -1.31069 h -1.45977 v 8.46042 z m 173.29714,-8.46042 h -1.44324 v 1.2611 h -0.0331 c -0.46437,-0.91242 -1.29376,-1.46016 -2.78698,-1.46016 -2.55473,0 -3.78236,2.32258 -3.78236,4.49581 0,2.18963 1.19455,4.16367 3.61673,4.16367 1.07805,0 2.17312,-0.43131 2.83649,-1.31027 h 0.0331 v 0.82938 c 0,1.79449 -0.97864,2.906 -2.62094,2.906 -1.14459,0 -1.85801,-0.21601 -3.0525,-0.76335 l -0.16571,1.44327 c 1.3602,0.46465 2.13968,0.58077 3.03566,0.58077 3.03595,0 4.36276,-1.4767 4.36276,-4.05059 v -8.09563 z m -4.03112,7.19972 c -1.45978,0 -2.35527,-1.39332 -2.35527,-2.98603 0,-1.44324 0.77947,-3.15176 2.35527,-3.15176 1.65891,0 2.47185,1.50945 2.47185,3.26788 0,1.57618 -1.01169,2.86991 -2.47185,2.86991 z m -14.15029,-2.9695 c 0,2.42218 1.75842,4.43219 4.31318,4.43219 2.53829,0 4.2967,-2.01001 4.2967,-4.43219 0,-2.57128 -1.72534,-4.42928 -4.2967,-4.42928 -2.58781,0 -4.31318,1.858 -4.31318,4.42928 z m 1.65924,0 c 0,-1.60887 0.97855,-3.16829 2.65394,-3.16829 1.6589,0 2.63787,1.55942 2.63787,3.16829 0,1.50973 -0.81294,3.16861 -2.63787,3.16861 -1.8414,0 -2.65394,-1.65888 -2.65394,-3.16861 z m -5.50773,4.2302 h 1.55933 v -12.44154 h -1.55933 z m -10.89905,-4.2302 c 0,2.42218 1.75834,4.43219 4.31317,4.43219 2.53822,0 4.29665,-2.01001 4.29665,-4.43219 0,-2.57128 -1.72537,-4.42928 -4.29665,-4.42928 -2.58787,0 -4.31317,1.858 -4.31317,4.42928 z m 1.65916,0 c 0,-1.60887 0.97856,-3.16829 2.65401,-3.16829 1.65886,0 2.63779,1.55942 2.63779,3.16829 0,1.50973 -0.8129,3.16861 -2.63779,3.16861 -1.84137,0 -2.65401,-1.65888 -2.65401,-3.16861 z m -11.23076,4.2302 h 1.55935 v -3.915 c 0,-2.05672 0.7964,-3.48349 2.57127,-3.48349 1.36028,0.0827 1.79151,1.04517 1.79151,3.01919 v 4.3793 h 1.55934 v -5.02621 c 0,-2.27269 -0.97857,-3.63327 -3.16821,-3.63327 -1.17802,0 -2.30616,0.58078 -2.77045,1.5428 h -0.0331 v -1.34374 h -1.50977 v 8.46042 z m -10.1357,0 h 1.55935 v -3.915 c 0,-2.05672 0.79632,-3.48349 2.57127,-3.48349 1.36022,0.0827 1.79143,1.04517 1.79143,3.01919 v 4.3793 h 1.55942 v -5.02621 c 0,-2.27269 -0.97864,-3.63327 -3.16829,-3.63327 -1.17802,0 -2.15658,0.51426 -2.72076,1.41016 h -0.0331 v -5.19222 h -1.55934 v 12.44154 z m -1.85798,-8.32736 c -0.44776,-0.18256 -1.26061,-0.33212 -1.89101,-0.33212 -2.58785,0 -4.31317,1.858 -4.31317,4.42928 0,2.42218 1.75836,4.43219 4.31317,4.43219 0.56388,0 1.31061,-0.05 1.95752,-0.35117 l -0.11604,-1.39325 c -0.48121,0.3152 -1.14466,0.48084 -1.67546,0.48084 -2.00744,0 -2.82033,-1.65888 -2.82033,-3.16861 0,-1.60887 0.97892,-3.16829 2.72077,-3.16829 0.49742,0 1.09467,0.11611 1.69196,0.36477 z m -8.24478,6.41975 c -0.38157,0.3152 -1.57583,0.84602 -2.6043,0.84602 -1.47672,0 -2.78699,-1.14469 -2.78699,-2.82005 h 6.03825 c 0,-2.72077 -0.91251,-4.77784 -3.73245,-4.77784 -2.38872,0 -3.965,1.77534 -3.965,4.28018 0,2.75382 1.37711,4.58129 4.37968,4.58129 1.39324,0 2.07359,-0.33463 2.67081,-0.55026 z m -5.39129,-3.13513 c 0.11611,-1.09497 0.74642,-2.35575 2.27276,-2.35575 1.34359,0 2.10657,1.06159 2.10657,2.35575 z m -6.63578,5.04274 h 1.65889 v -10.11925 h 3.59981 v -1.45977 h -8.8586 v 1.45977 h 3.5999 z m -27.60356,0 h 1.55937 v -7.19932 h 2.23955 v -1.2611 h -2.23955 v -0.91202 c 0,-1.14499 0.16565,-2.00751 1.50928,-2.00751 0.26565,0 0.56429,0.0331 0.74683,0.0995 l 0.0661,-1.2606 c -0.31513,-0.05 -0.64681,-0.0996 -1.04502,-0.0996 -2.30568,0 -2.83653,1.34375 -2.83653,3.40075 v 0.77946 h -1.99092 v 1.2611 h 1.99092 z m -7.16083,-8.46042 h -2.2396 v -2.45484 l -1.55934,0.49734 v 1.9575 h -1.90792 v 1.2611 h 1.90792 v 4.94354 c 0,1.69191 0.99512,2.45777 2.60441,2.45777 0.4977,0 0.97857,-0.13254 1.32717,-0.23504 v -1.32721 c -0.23216,0.14948 -0.58078,0.29867 -1.06201,0.29867 -0.71295,0 -1.31023,-0.53082 -1.31023,-1.50939 v -4.62834 h 2.2396 z m -7.15005,0 h -1.55934 v 3.91502 c 0,2.05708 -0.79601,3.48381 -2.57132,3.48381 -1.36024,-0.0831 -1.79145,-1.04509 -1.79145,-3.01912 v -4.37971 h -1.55935 v 5.02662 c 0,2.27261 0.9786,3.63579 3.16859,3.63579 1.17768,0 2.30578,-0.58332 2.77046,-1.54571 h 0.0331 v 1.34372 h 1.50937 v -8.46042 z m -9.43897,0 h -2.23959 v -2.45484 l -1.5593,0.49734 v 1.9575 h -1.90796 v 1.2611 h 1.90796 v 4.94354 c 0,1.69191 0.9951,2.45777 2.60434,2.45777 0.49774,0 0.9786,-0.13254 1.32721,-0.23504 v -1.32721 c -0.23215,0.14948 -0.58081,0.29867 -1.06201,0.29867 -0.71296,0 -1.31024,-0.53082 -1.31024,-1.50939 v -4.62834 h 2.23959 z m -8.90847,8.46042 h 1.55932 v -8.46042 h -1.55932 z m 1.65885,-12.10983 h -1.75842 v 1.75843 h 1.75842 z m -3.81543,3.64941 h -2.23963 v -2.45484 l -1.55934,0.49734 v 1.9575 h -1.90792 v 1.2611 h 1.90792 v 4.94354 c 0,1.69191 0.99507,2.45777 2.60437,2.45777 0.49774,0 0.9786,-0.13254 1.32719,-0.23504 v -1.32721 c -0.23217,0.14948 -0.58073,0.29867 -1.06195,0.29867 -0.71299,0 -1.31027,-0.53082 -1.31027,-1.50939 v -4.62834 h 2.23963 z m -11.66238,8.19514 c 0.71337,0.38424 1.52626,0.46727 2.32222,0.46727 1.50975,0 2.95297,-0.83237 2.95297,-2.64032 0,-2.70399 -3.66593,-2.20655 -3.66593,-3.93162 0,-0.69683 0.69643,-1.02854 1.49282,-1.02854 0.36515,0 1.29412,0.21569 1.64233,0.4313 l 0.13262,-1.36017 c -0.61385,-0.18256 -1.21073,-0.33212 -1.94096,-0.33212 -1.67542,0 -2.98604,0.84631 -2.98604,2.60473 0,2.37227 3.66632,2.23923 3.66632,3.78204 0,0.91245 -0.879,1.21112 -1.59241,1.21112 -0.44812,0 -1.32711,-0.19911 -1.94096,-0.59733 z m -9.42242,0.26528 h 1.55935 v -3.915 c 0,-2.05672 0.79636,-3.48349 2.57128,-3.48349 1.36022,0.0827 1.79148,1.04517 1.79148,3.01919 v 4.3793 h 1.55935 v -5.02621 c 0,-2.27269 -0.97861,-3.63327 -3.16824,-3.63327 -1.17803,0 -2.30611,0.58078 -2.7704,1.5428 h -0.0331 v -1.34374 h -1.50975 v 8.46042 z m -4.46269,0 h 1.65888 v -11.57902 h -1.65888 z m -13.74457,-1.90761 c -0.38168,0.3152 -1.57586,0.84602 -2.6044,0.84602 -1.47668,0 -2.78696,-1.14469 -2.78696,-2.82005 h 6.03825 c 0,-2.72077 -0.9125,-4.77784 -3.73249,-4.77784 -2.38873,0 -3.96495,1.77534 -3.96495,4.28018 0,2.75382 1.37709,4.58129 4.37967,4.58129 1.39329,0 2.07359,-0.33463 2.67088,-0.55026 z m -5.39136,-3.13513 c 0.1161,-1.09497 0.74646,-2.35575 2.27269,-2.35575 1.34371,0 2.10663,1.06159 2.10663,2.35575 z m -11.230725,5.04274 h 1.559315 v -3.915 c 0,-2.05672 0.79636,-3.48349 2.57131,-3.48349 1.36023,0.0827 1.79145,1.04517 1.79145,3.01919 v 4.3793 h 1.55935 v -5.02621 c 0,-2.27269 -0.97856,-3.63327 -3.16825,-3.63327 -1.17803,0 -2.15657,0.51426 -2.72081,1.41016 h -0.0331 v -5.19222 h -1.559318 v 12.44154 z m -2.654366,-8.46042 h -1.55929 v 3.91502 c 0,2.05708 -0.796017,3.48381 -2.571321,3.48381 -1.360231,-0.0831 -1.791486,-1.04509 -1.791486,-3.01912 v -4.37971 h -1.559317 v 5.02662 c 0,2.27261 0.978612,3.63579 3.168611,3.63579 1.177668,0 2.305709,-0.58332 2.770404,-1.54571 h 0.03306 v 1.34372 h 1.50935 v -8.46042 z m -13.934678,8.46042 h 1.559346 v -3.84857 c 0,-2.12315 0.912439,-3.45033 2.305719,-3.45033 0.265557,0 0.580755,0.0331 0.862878,0.14917 v -1.39332 c -0.331716,-0.0665 -0.564258,-0.11643 -1.028528,-0.11643 -0.895922,0 -1.791856,0.6307 -2.206585,1.50975 h -0.03306 v -1.31069 h -1.459768 v 8.46042 z m -7.16661,-0.26528 c 0.713391,0.38424 1.526284,0.46727 2.322285,0.46727 1.509718,0 2.952959,-0.83237 2.952959,-2.64032 0,-2.70399 -3.66595,-2.20655 -3.66595,-3.93162 0,-0.69683 0.696463,-1.02854 1.492832,-1.02854 0.365136,0 1.29408,0.21569 1.642293,0.4313 l 0.132662,-1.36017 c -0.613818,-0.18256 -1.210752,-0.33212 -1.941,-0.33212 -1.675389,0 -2.986032,0.84631 -2.986032,2.60473 0,2.37227 3.666385,2.23923 3.666385,3.78204 0,0.91245 -0.879065,1.21112 -1.592445,1.21112 -0.448115,0 -1.327132,-0.19911 -1.940978,-0.59733 z m -3.69937,0.26528 h 1.559317 v -12.44154 h -1.559317 z m -6.652369,0 h 1.559347 v -3.84857 c 0,-2.12315 0.912432,-3.45033 2.305708,-3.45033 0.265605,0 0.580748,0.0331 0.862882,0.14917 v -1.39332 c -0.331727,-0.0665 -0.564214,-0.11643 -1.028555,-0.11643 -0.895886,0 -1.791839,0.6307 -2.206517,1.50975 h -0.03311 v -1.31069 h -1.459752 z m -8.742457,-6.53596 c 0.630341,-0.53082 1.575865,-0.86253 2.454895,-0.86253 1.559652,0 2.090453,0.7465 2.090453,2.20627 -0.613817,-0.0331 -1.045024,-0.0331 -1.658842,-0.0331 -1.609283,0 -3.931935,0.66329 -3.931935,2.78697 0,1.8414 1.277583,2.64033 3.102464,2.64033 1.426356,0 2.255821,-0.7824 2.620906,-1.29668 h 0.03306 v 1.09468 h 1.459747 c -0.03306,-0.24867 -0.06611,-0.6965 -0.06611,-1.65892 v -3.50023 c 0,-2.30578 -0.97893,-3.50033 -3.400746,-3.50033 -1.078459,0 -2.007442,0.33212 -2.786933,0.79639 l 0.08302,1.32713 z m 4.545348,3.25166 c 0,1.26066 -0.812886,2.22271 -2.355704,2.22271 -0.713341,0 -1.575832,-0.48084 -1.575832,-1.37674 0,-1.49323 2.090105,-1.62585 2.936088,-1.62585 0.331683,0 0.663367,0.0331 0.995448,0.0331 v 0.74683 z m -15.859119,3.2843 h 1.658898 v -5.67343 l 5.159117,5.67343 h 2.422181 l -5.87253,-6.10467 5.441273,-5.47435 H 52.16773 l -4.943508,5.09302 v -5.09302 h -1.658898 z"
           id="path22" />
      </g>
      <path
         inkscape:connector-curvature="0"
         id="path4683-5"
         d="m 133.30543,182.54581 25.30441,26.46531"
         style="fill:none;stroke:#000000;stroke-width:1.04100001;stroke-linecap:butt;stroke-linejoin:miter;stroke-miterlimit:4;stroke-dasharray:none;stroke-opacity:1;marker-end:url(#marker4687-2)" />
      <path
         style="fill:none;stroke:#000000;stroke-width:1.04100001;stroke-linecap:butt;stroke-linejoin:miter;stroke-miterlimit:4;stroke-dasharray:none;stroke-opacity:1;marker-end:url(#marker6160)"
         d="M 165.3555,207.06326 140.05109,180.59795"
         id="path6156"
         inkscape:connector-curvature="0" />
      <g
         transform="matrix(0.71718689,0,0,0.71718689,76.387259,46.597111)"
         id="g6847">
        <text
           id="text6840"
           y="181.33481"
           x="21.488573"
           style="font-style:normal;font-variant:normal;font-weight:normal;font-stretch:normal;font-size:8.03743553px;line-height:1.25;font-family:'Open Sans';-inkscape-font-specification:'Open Sans';letter-spacing:0px;word-spacing:0px;fill:#000000;fill-opacity:1;stroke:none;stroke-width:0.20093589"
           xml:space="preserve"><tspan
             style="font-weight:bold;stroke-width:0.20093589"
             y="181.33481"
             x="21.488573"
             id="tspan6838"
             sodipodi:role="line">1</tspan></text>
        <circle
           style="fill:none;fill-opacity:1;stroke:#32a189;stroke-width:1.04100001;stroke-linecap:butt;stroke-miterlimit:4;stroke-dasharray:none;stroke-dashoffset:0;stroke-opacity:1;paint-order:stroke markers fill"
           id="path6842"
           cx="23.915251"
           cy="178.46597"
           r="4.6772165" />
      </g>
      <text
         id="text6851"
         y="195.35692"
         x="110.24018"
         style="font-style:normal;font-variant:normal;font-weight:normal;font-stretch:normal;font-size:5.76434326px;line-height:1.25;font-family:'Open Sans';-inkscape-font-specification:'Open Sans';letter-spacing:0px;word-spacing:0px;fill:#000000;fill-opacity:1;stroke:none;stroke-width:0.14410858"
         xml:space="preserve"><tspan
           style="font-weight:bold;stroke-width:0.14410858"
           y="195.35692"
           x="110.24018"
           id="tspan6849"
           sodipodi:role="line">2</tspan></text>
      <circle
         style="fill:none;fill-opacity:1;stroke:#32a189;stroke-width:0.74659157;stroke-linecap:butt;stroke-miterlimit:4;stroke-dasharray:none;stroke-dashoffset:0;stroke-opacity:1;paint-order:stroke markers fill"
         id="circle6853"
         cx="111.98056"
         cy="193.29944"
         r="3.3544383" />
      <text
         xml:space="preserve"
         style="font-style:normal;font-variant:normal;font-weight:normal;font-stretch:normal;font-size:5.76434326px;line-height:1.25;font-family:'Open Sans';-inkscape-font-specification:'Open Sans';letter-spacing:0px;word-spacing:0px;fill:#000000;fill-opacity:1;stroke:none;stroke-width:0.14410858"
         x="92.044266"
         y="195.89146"
         id="text6859"><tspan
           sodipodi:role="line"
           id="tspan6857"
           x="92.044266"
           y="195.89146"
           style="font-weight:bold;stroke-width:0.14410858">3</tspan></text>
      <circle
         r="3.3544383"
         cy="193.83397"
         cx="93.538963"
         id="circle6861"
         style="fill:none;fill-opacity:1;stroke:#32a189;stroke-width:0.74659157;stroke-linecap:butt;stroke-miterlimit:4;stroke-dasharray:none;stroke-dashoffset:0;stroke-opacity:1;paint-order:stroke markers fill" />
      <text
         id="text6867"
         y="196.33151"
         x="160.96471"
         style="font-style:normal;font-variant:normal;font-weight:normal;font-stretch:normal;font-size:5.76434326px;line-height:1.25;font-family:'Open Sans';-inkscape-font-specification:'Open Sans';letter-spacing:0px;word-spacing:0px;fill:#000000;fill-opacity:1;stroke:none;stroke-width:0.14410858"
         xml:space="preserve"><tspan
           style="font-weight:bold;stroke-width:0.14410858"
           y="196.33151"
           x="160.96471"
           id="tspan6865"
           sodipodi:role="line">4</tspan></text>
      <circle
         style="fill:none;fill-opacity:1;stroke:#32a189;stroke-width:0.74659157;stroke-linecap:butt;stroke-miterlimit:4;stroke-dasharray:none;stroke-dashoffset:0;stroke-opacity:1;paint-order:stroke markers fill"
         id="circle6869"
         cx="162.76178"
         cy="194.36852"
         r="3.3544383" />
      <text
         xml:space="preserve"
         style="font-style:normal;font-variant:normal;font-weight:normal;font-stretch:normal;font-size:5.76434326px;line-height:1.25;font-family:'Open Sans';-inkscape-font-specification:'Open Sans';letter-spacing:0px;word-spacing:0px;fill:#000000;fill-opacity:1;stroke:none;stroke-width:0.14410858"
         x="154.8526"
         y="176.91533"
         id="text6875"><tspan
           sodipodi:role="line"
           id="tspan6873"
           x="154.8526"
           y="176.91533"
           style="font-weight:bold;stroke-width:0.14410858">5</tspan></text>
      <circle
         r="3.3544383"
         cy="174.85783"
         cx="156.34731"
         id="circle6877"
         style="fill:none;fill-opacity:1;stroke:#32a189;stroke-width:0.74659157;stroke-linecap:butt;stroke-miterlimit:4;stroke-dasharray:none;stroke-dashoffset:0;stroke-opacity:1;paint-order:stroke markers fill" />
    </g>
    <g
       id="g7055">
      <text
         xml:space="preserve"
         style="font-style:normal;font-variant:normal;font-weight:normal;font-stretch:normal;font-size:10.58333302px;line-height:1.25;font-family:'Open Sans';-inkscape-font-specification:'Open Sans';letter-spacing:0px;word-spacing:0px;fill:#000000;fill-opacity:1;stroke:none;stroke-width:0.26458332"
         x="59.868374"
         y="165.67827"
         id="text6957"><tspan
           sodipodi:role="line"
           id="tspan6955"
           x="59.868374"
           y="165.67827"
           style="font-weight:bold;stroke-width:0.26458332">User</tspan></text>
      <text
         id="text6961"
         y="165.78679"
         x="106.37327"
         style="font-style:normal;font-variant:normal;font-weight:normal;font-stretch:normal;font-size:10.58333302px;line-height:1.25;font-family:'Open Sans';-inkscape-font-specification:'Open Sans';letter-spacing:0px;word-spacing:0px;fill:#000000;fill-opacity:1;stroke:none;stroke-width:0.26458332"
         xml:space="preserve"><tspan
           style="font-weight:bold;stroke-width:0.26458332"
           y="165.78679"
           x="106.37327"
           id="tspan6959"
           sodipodi:role="line">Server</tspan></text>
      <text
         xml:space="preserve"
         style="font-style:normal;font-variant:normal;font-weight:normal;font-stretch:normal;font-size:10.58333302px;line-height:1.25;font-family:'Open Sans';-inkscape-font-specification:'Open Sans';letter-spacing:0px;word-spacing:0px;fill:#000000;fill-opacity:1;stroke:none;stroke-width:0.26458332"
         x="164.90529"
         y="166.16403"
         id="text6965"><tspan
           sodipodi:role="line"
           id="tspan6963"
           x="164.90529"
           y="166.16403"
           style="font-weight:bold;stroke-width:0.26458332">Filesystem</tspan></text>
      <path
         style="fill:none;stroke:#000000;stroke-width:1.04100001;stroke-linecap:butt;stroke-linejoin:miter;stroke-miterlimit:4;stroke-dasharray:none;stroke-opacity:1;marker-end:url(#TriangleOutM)"
         d="m 76.073663,151.77707 c 18.111362,-14.42875 35.705257,0.11731 35.705257,0.11731"
         id="path6967"
         inkscape:connector-curvature="0" />
      <path
         inkscape:connector-curvature="0"
         id="path6969"
         d="m 137.27839,152.04434 c 18.11136,-14.42875 35.70525,0.11731 35.70525,0.11731"
         style="fill:none;stroke:#000000;stroke-width:1.04100001;stroke-linecap:butt;stroke-linejoin:miter;stroke-miterlimit:4;stroke-dasharray:none;stroke-opacity:1;marker-end:url(#marker2599)" />
      <text
         xml:space="preserve"
         style="font-style:normal;font-variant:normal;font-weight:normal;font-stretch:normal;font-size:8.03743553px;line-height:1.25;font-family:'Open Sans';-inkscape-font-specification:'Open Sans';letter-spacing:0px;word-spacing:0px;fill:#000000;fill-opacity:1;stroke:none;stroke-width:0.20093589"
         x="83.536018"
         y="141.75742"
         id="text6973"><tspan
           sodipodi:role="line"
           id="tspan6971"
           x="83.536018"
           y="141.75742"
           style="font-weight:bold;stroke-width:0.20093589">OIDC</tspan></text>
      <path
         inkscape:connector-curvature="0"
         id="path6975"
         d="m 76.073663,174.14352 c 18.111362,14.42875 35.705257,-0.11731 35.705257,-0.11731"
         style="fill:none;stroke:#000000;stroke-width:1.04100001;stroke-linecap:butt;stroke-linejoin:miter;stroke-miterlimit:4;stroke-dasharray:none;stroke-opacity:1;marker-end:url(#marker3047)" />
      <path
         style="fill:none;stroke:#000000;stroke-width:1.04100001;stroke-linecap:butt;stroke-linejoin:miter;stroke-miterlimit:4;stroke-dasharray:none;stroke-opacity:1;marker-end:url(#marker3425)"
         d="m 137.81292,174.14352 c 18.11137,14.42875 35.70526,-0.11731 35.70526,-0.11731"
         id="path6977"
         inkscape:connector-curvature="0" />
      <text
         id="text6981"
         y="141.75742"
         x="142.86986"
         style="font-style:normal;font-variant:normal;font-weight:normal;font-stretch:normal;font-size:8.03743553px;line-height:1.25;font-family:'Open Sans';-inkscape-font-specification:'Open Sans';letter-spacing:0px;word-spacing:0px;fill:#000000;fill-opacity:1;stroke:none;stroke-width:0.20093589"
         xml:space="preserve"><tspan
           style="font-weight:bold;stroke-width:0.20093589"
           y="141.75742"
           x="142.86986"
           id="tspan6979"
           sodipodi:role="line">OAuth</tspan></text>
      <text
         xml:space="preserve"
         style="font-style:normal;font-variant:normal;font-weight:normal;font-stretch:normal;font-size:10.58333302px;line-height:1.25;font-family:'Open Sans';-inkscape-font-specification:'Open Sans';letter-spacing:0px;word-spacing:0px;fill:#000000;fill-opacity:1;stroke:none;stroke-width:0.26458332"
         x="100.22606"
         y="224.05154"
         id="text6987"><tspan
           sodipodi:role="line"
           id="tspan6983"
           x="100.22606"
           y="224.05154"
           style="font-weight:bold;stroke-width:0.26458332">Identity</tspan><tspan
           sodipodi:role="line"
           x="100.22606"
           y="237.28072"
           style="font-weight:bold;stroke-width:0.26458332"
           id="tspan6985">Provider</tspan></text>
      <path
         style="fill:none;stroke:#000000;stroke-width:1.04100001;stroke-linecap:butt;stroke-linejoin:miter;stroke-miterlimit:4;stroke-dasharray:none;stroke-opacity:1;marker-end:url(#marker3817)"
         d="m 118.13313,172.18513 v 36.61592"
         id="path6989"
         inkscape:connector-curvature="0" />
      <path
         inkscape:connector-curvature="0"
         id="path6991"
         d="M 98.626798,214.18562 80.318838,182.4753"
         style="fill:none;stroke:#000000;stroke-width:1.04100001;stroke-linecap:butt;stroke-linejoin:miter;stroke-miterlimit:4;stroke-dasharray:none;stroke-opacity:1;marker-end:url(#marker4285)" />
      <path
         style="fill:none;stroke:#000000;stroke-width:1.04100001;stroke-linecap:butt;stroke-linejoin:miter;stroke-miterlimit:4;stroke-dasharray:none;stroke-opacity:1;marker-end:url(#marker4687)"
         d="m 73.942917,186.05436 18.30796,31.71032"
         id="path6993"
         inkscape:connector-curvature="0" />
      <path
         inkscape:connector-curvature="0"
         id="path6995"
         d="M 125.08214,211.75839 V 175.14247"
         style="fill:none;stroke:#000000;stroke-width:1.04100001;stroke-linecap:butt;stroke-linejoin:miter;stroke-miterlimit:4;stroke-dasharray:none;stroke-opacity:1;marker-end:url(#marker4987)" />
      <g
         id="g7017"
         transform="matrix(0.19758154,0,0,0.19758154,154.53063,178.28271)">
        <path
           id="path6997"
           d="M 304.23896,182.12218 H 243.24874 V 202.895 h 17.83234 v 71.61375 h 25.32564 V 202.895 h 17.83224 z m -67.06083,92.29168 h -25.32571 v -92.29168 h 25.32571 z m -29.59407,0 h -28.17121 l -33.48297,-35.94911 v -20.58306 l 32.43957,-35.85441 h 29.02497 l -37.37196,46.47794 z"
           style="fill:#000000;fill-rule:evenodd;stroke-width:0.26458332"
           inkscape:connector-curvature="0" />
        <path
           id="path6999"
           d="M 139.85927,274.41386 Z"
           style="fill:#000000;fill-rule:evenodd;stroke-width:0.26458332"
           inkscape:connector-curvature="0" />
        <path
           id="path7001"
           d="M 139.85927,274.41386 Z"
           style="fill:#000000;fill-rule:evenodd;stroke-width:0.26458332"
           inkscape:connector-curvature="0" />
        <path
           id="path7003"
           d="m 67.676424,215.88975 c -4.837531,5.88092 -9.010985,12.33092 -12.236065,19.25514 l 84.418911,39.26897 -72.182844,-58.52411 z"
           style="fill:#32a189;fill-rule:evenodd;stroke-width:0.26458332"
           inkscape:connector-curvature="0" />
        <path
           id="path7005"
           d="m 139.85927,274.41386 -39.36382,-83.75489 c -7.019141,3.2249 -13.469079,7.20886 -19.349944,11.95148 z"
           style="fill:#32a189;fill-rule:evenodd;stroke-width:0.26458332"
           inkscape:connector-curvature="0" />
        <path
           id="path7007"
           d="m 139.85927,274.41386 0.0948,-92.29168 h -0.75875 c -7.4934,0 -14.79706,0.94864 -21.81613,2.65595 z"
           style="fill:#000000;fill-rule:evenodd;stroke-width:0.26458332"
           inkscape:connector-curvature="0" />
        <path
           id="path7009"
           d="M 139.85927,274.41386 Z"
           style="fill:#000000;fill-rule:evenodd;stroke-width:0.26458332"
           inkscape:connector-curvature="0" />
        <path
           id="path7011"
           d="M 139.85927,274.41386 Z"
           style="fill:#000000;fill-rule:evenodd;stroke-width:0.26458332"
           inkscape:connector-curvature="0" />
        <path
           id="path7013"
           d="m 49.369826,251.83896 c -1.897013,7.20886 -2.845553,14.797 -2.940429,22.5749 h 93.429873 l -90.489442,-22.5749 z"
           style="fill:#32a189;fill-rule:evenodd;stroke-width:0.26458332"
           inkscape:connector-curvature="0" />
        <path
           id="path7015"
           d="m 305.51441,295.19518 c -0.38157,0.3152 -1.57583,0.84602 -2.60431,0.84602 -1.4767,0 -2.78699,-1.14469 -2.78699,-2.82005 h 6.03826 c 0,-2.72077 -0.9125,-4.77784 -3.73247,-4.77784 -2.38871,0 -3.96499,1.77534 -3.96499,4.28018 0,2.75382 1.3771,4.58129 4.3797,4.58129 1.39323,0 2.07358,-0.33463 2.6708,-0.55026 z m -5.3913,-3.13513 c 0.11611,-1.09497 0.74643,-2.35575 2.27277,-2.35575 1.3436,0 2.10658,1.06159 2.10658,2.35575 z m -5.04625,5.04274 h 1.55932 v -8.46042 h -1.55932 z m 1.65885,-12.10983 h -1.75842 v 1.75843 h 1.75842 z m -99.5941,0.36728 h 1.73331 v 1.76664 h -1.73331 z m 3.70765,0 h 1.73331 v 1.76664 h -1.73331 z m 4.96657,11.74255 h 1.55935 v -3.84857 c 0,-2.12315 0.91244,-3.45033 2.30572,-3.45033 0.26555,0 0.58075,0.0331 0.86287,0.14917 v -1.39332 c -0.33171,-0.0665 -0.56425,-0.11643 -1.02852,-0.11643 -0.89592,0 -1.79186,0.6307 -2.20659,1.50975 h -0.0331 v -1.31069 h -1.45976 v 8.46042 z m -2.21302,-8.66242 h -1.55935 v 3.91502 c 0,2.05708 -0.796,3.48381 -2.57131,3.48381 -1.36024,-0.0831 -1.79145,-1.04509 -1.79145,-3.01912 v -4.37971 h -1.55935 v 5.02663 c 0,2.27261 0.97859,3.63579 3.1686,3.63579 1.17767,0 2.30577,-0.58332 2.77045,-1.54572 h 0.0331 v 1.34372 h 1.50937 v -8.46042 z m -84.07232,8.66242 h 1.55935 v -3.84857 c 0,-2.12315 0.91244,-3.45033 2.30572,-3.45033 0.26556,0 0.58076,0.0331 0.86288,0.14917 v -1.39332 c -0.33172,-0.0665 -0.56426,-0.11643 -1.02853,-0.11643 -0.89592,0 -1.79186,0.6307 -2.20658,1.50975 h -0.0331 v -1.31069 h -1.45977 v 8.46042 z m 173.29714,-8.46042 h -1.44324 v 1.2611 h -0.0331 c -0.46437,-0.91242 -1.29376,-1.46016 -2.78698,-1.46016 -2.55473,0 -3.78236,2.32258 -3.78236,4.49581 0,2.18963 1.19455,4.16367 3.61673,4.16367 1.07805,0 2.17312,-0.43131 2.83649,-1.31027 h 0.0331 v 0.82938 c 0,1.79449 -0.97864,2.906 -2.62094,2.906 -1.14459,0 -1.85801,-0.21601 -3.0525,-0.76335 l -0.16571,1.44327 c 1.3602,0.46465 2.13968,0.58077 3.03566,0.58077 3.03595,0 4.36276,-1.4767 4.36276,-4.05059 v -8.09563 z m -4.03112,7.19972 c -1.45978,0 -2.35527,-1.39332 -2.35527,-2.98603 0,-1.44324 0.77947,-3.15176 2.35527,-3.15176 1.65891,0 2.47185,1.50945 2.47185,3.26788 0,1.57618 -1.01169,2.86991 -2.47185,2.86991 z m -14.15029,-2.9695 c 0,2.42218 1.75842,4.43219 4.31318,4.43219 2.53829,0 4.2967,-2.01001 4.2967,-4.43219 0,-2.57128 -1.72534,-4.42928 -4.2967,-4.42928 -2.58781,0 -4.31318,1.858 -4.31318,4.42928 z m 1.65924,0 c 0,-1.60887 0.97855,-3.16829 2.65394,-3.16829 1.6589,0 2.63787,1.55942 2.63787,3.16829 0,1.50973 -0.81294,3.16861 -2.63787,3.16861 -1.8414,0 -2.65394,-1.65888 -2.65394,-3.16861 z m -5.50773,4.2302 h 1.55933 v -12.44154 h -1.55933 z m -10.89905,-4.2302 c 0,2.42218 1.75834,4.43219 4.31317,4.43219 2.53822,0 4.29665,-2.01001 4.29665,-4.43219 0,-2.57128 -1.72537,-4.42928 -4.29665,-4.42928 -2.58787,0 -4.31317,1.858 -4.31317,4.42928 z m 1.65916,0 c 0,-1.60887 0.97856,-3.16829 2.65401,-3.16829 1.65886,0 2.63779,1.55942 2.63779,3.16829 0,1.50973 -0.8129,3.16861 -2.63779,3.16861 -1.84137,0 -2.65401,-1.65888 -2.65401,-3.16861 z m -11.23076,4.2302 h 1.55935 v -3.915 c 0,-2.05672 0.7964,-3.48349 2.57127,-3.48349 1.36028,0.0827 1.79151,1.04517 1.79151,3.01919 v 4.3793 h 1.55934 v -5.02621 c 0,-2.27269 -0.97857,-3.63327 -3.16821,-3.63327 -1.17802,0 -2.30616,0.58078 -2.77045,1.5428 h -0.0331 v -1.34374 h -1.50977 v 8.46042 z m -10.1357,0 h 1.55935 v -3.915 c 0,-2.05672 0.79632,-3.48349 2.57127,-3.48349 1.36022,0.0827 1.79143,1.04517 1.79143,3.01919 v 4.3793 h 1.55942 v -5.02621 c 0,-2.27269 -0.97864,-3.63327 -3.16829,-3.63327 -1.17802,0 -2.15658,0.51426 -2.72076,1.41016 h -0.0331 v -5.19222 h -1.55934 v 12.44154 z m -1.85798,-8.32736 c -0.44776,-0.18256 -1.26061,-0.33212 -1.89101,-0.33212 -2.58785,0 -4.31317,1.858 -4.31317,4.42928 0,2.42218 1.75836,4.43219 4.31317,4.43219 0.56388,0 1.31061,-0.05 1.95752,-0.35117 l -0.11604,-1.39325 c -0.48121,0.3152 -1.14466,0.48084 -1.67546,0.48084 -2.00744,0 -2.82033,-1.65888 -2.82033,-3.16861 0,-1.60887 0.97892,-3.16829 2.72077,-3.16829 0.49742,0 1.09467,0.11611 1.69196,0.36477 z m -8.24478,6.41975 c -0.38157,0.3152 -1.57583,0.84602 -2.6043,0.84602 -1.47672,0 -2.78699,-1.14469 -2.78699,-2.82005 h 6.03825 c 0,-2.72077 -0.91251,-4.77784 -3.73245,-4.77784 -2.38872,0 -3.965,1.77534 -3.965,4.28018 0,2.75382 1.37711,4.58129 4.37968,4.58129 1.39324,0 2.07359,-0.33463 2.67081,-0.55026 z m -5.39129,-3.13513 c 0.11611,-1.09497 0.74642,-2.35575 2.27276,-2.35575 1.34359,0 2.10657,1.06159 2.10657,2.35575 z m -6.63578,5.04274 h 1.65889 v -10.11925 h 3.59981 v -1.45977 h -8.8586 v 1.45977 h 3.5999 z m -27.60356,0 h 1.55937 v -7.19932 h 2.23955 v -1.2611 h -2.23955 v -0.91202 c 0,-1.14499 0.16565,-2.00751 1.50928,-2.00751 0.26565,0 0.56429,0.0331 0.74683,0.0995 l 0.0661,-1.2606 c -0.31513,-0.05 -0.64681,-0.0996 -1.04502,-0.0996 -2.30568,0 -2.83653,1.34375 -2.83653,3.40075 v 0.77946 h -1.99092 v 1.2611 h 1.99092 z m -7.16083,-8.46042 h -2.2396 v -2.45484 l -1.55934,0.49734 v 1.9575 h -1.90792 v 1.2611 h 1.90792 v 4.94354 c 0,1.69191 0.99512,2.45777 2.60441,2.45777 0.4977,0 0.97857,-0.13254 1.32717,-0.23504 v -1.32721 c -0.23216,0.14948 -0.58078,0.29867 -1.06201,0.29867 -0.71295,0 -1.31023,-0.53082 -1.31023,-1.50939 v -4.62834 h 2.2396 z m -7.15005,0 h -1.55934 v 3.91502 c 0,2.05708 -0.79601,3.48381 -2.57132,3.48381 -1.36024,-0.0831 -1.79145,-1.04509 -1.79145,-3.01912 v -4.37971 h -1.55935 v 5.02662 c 0,2.27261 0.9786,3.63579 3.16859,3.63579 1.17768,0 2.30578,-0.58332 2.77046,-1.54571 h 0.0331 v 1.34372 h 1.50937 v -8.46042 z m -9.43897,0 h -2.23959 v -2.45484 l -1.5593,0.49734 v 1.9575 h -1.90796 v 1.2611 h 1.90796 v 4.94354 c 0,1.69191 0.9951,2.45777 2.60434,2.45777 0.49774,0 0.9786,-0.13254 1.32721,-0.23504 v -1.32721 c -0.23215,0.14948 -0.58081,0.29867 -1.06201,0.29867 -0.71296,0 -1.31024,-0.53082 -1.31024,-1.50939 v -4.62834 h 2.23959 z m -8.90847,8.46042 h 1.55932 v -8.46042 h -1.55932 z m 1.65885,-12.10983 h -1.75842 v 1.75843 h 1.75842 z m -3.81543,3.64941 h -2.23963 v -2.45484 l -1.55934,0.49734 v 1.9575 h -1.90792 v 1.2611 h 1.90792 v 4.94354 c 0,1.69191 0.99507,2.45777 2.60437,2.45777 0.49774,0 0.9786,-0.13254 1.32719,-0.23504 v -1.32721 c -0.23217,0.14948 -0.58073,0.29867 -1.06195,0.29867 -0.71299,0 -1.31027,-0.53082 -1.31027,-1.50939 v -4.62834 h 2.23963 z m -11.66238,8.19514 c 0.71337,0.38424 1.52626,0.46727 2.32222,0.46727 1.50975,0 2.95297,-0.83237 2.95297,-2.64032 0,-2.70399 -3.66593,-2.20655 -3.66593,-3.93162 0,-0.69683 0.69643,-1.02854 1.49282,-1.02854 0.36515,0 1.29412,0.21569 1.64233,0.4313 l 0.13262,-1.36017 c -0.61385,-0.18256 -1.21073,-0.33212 -1.94096,-0.33212 -1.67542,0 -2.98604,0.84631 -2.98604,2.60473 0,2.37227 3.66632,2.23923 3.66632,3.78204 0,0.91245 -0.879,1.21112 -1.59241,1.21112 -0.44812,0 -1.32711,-0.19911 -1.94096,-0.59733 z m -9.42242,0.26528 h 1.55935 v -3.915 c 0,-2.05672 0.79636,-3.48349 2.57128,-3.48349 1.36022,0.0827 1.79148,1.04517 1.79148,3.01919 v 4.3793 h 1.55935 v -5.02621 c 0,-2.27269 -0.97861,-3.63327 -3.16824,-3.63327 -1.17803,0 -2.30611,0.58078 -2.7704,1.5428 h -0.0331 v -1.34374 h -1.50975 v 8.46042 z m -4.46269,0 h 1.65888 v -11.57902 h -1.65888 z m -13.74457,-1.90761 c -0.38168,0.3152 -1.57586,0.84602 -2.6044,0.84602 -1.47668,0 -2.78696,-1.14469 -2.78696,-2.82005 h 6.03825 c 0,-2.72077 -0.9125,-4.77784 -3.73249,-4.77784 -2.38873,0 -3.96495,1.77534 -3.96495,4.28018 0,2.75382 1.37709,4.58129 4.37967,4.58129 1.39329,0 2.07359,-0.33463 2.67088,-0.55026 z m -5.39136,-3.13513 c 0.1161,-1.09497 0.74646,-2.35575 2.27269,-2.35575 1.34371,0 2.10663,1.06159 2.10663,2.35575 z m -11.230725,5.04274 h 1.559315 v -3.915 c 0,-2.05672 0.79636,-3.48349 2.57131,-3.48349 1.36023,0.0827 1.79145,1.04517 1.79145,3.01919 v 4.3793 h 1.55935 v -5.02621 c 0,-2.27269 -0.97856,-3.63327 -3.16825,-3.63327 -1.17803,0 -2.15657,0.51426 -2.72081,1.41016 h -0.0331 v -5.19222 h -1.559318 v 12.44154 z m -2.654366,-8.46042 h -1.55929 v 3.91502 c 0,2.05708 -0.796017,3.48381 -2.571321,3.48381 -1.360231,-0.0831 -1.791486,-1.04509 -1.791486,-3.01912 v -4.37971 h -1.559317 v 5.02662 c 0,2.27261 0.978612,3.63579 3.168611,3.63579 1.177668,0 2.305709,-0.58332 2.770404,-1.54571 h 0.03306 v 1.34372 h 1.50935 v -8.46042 z m -13.934678,8.46042 h 1.559346 v -3.84857 c 0,-2.12315 0.912439,-3.45033 2.305719,-3.45033 0.265557,0 0.580755,0.0331 0.862878,0.14917 v -1.39332 c -0.331716,-0.0665 -0.564258,-0.11643 -1.028528,-0.11643 -0.895922,0 -1.791856,0.6307 -2.206585,1.50975 h -0.03306 v -1.31069 h -1.459768 v 8.46042 z m -7.16661,-0.26528 c 0.713391,0.38424 1.526284,0.46727 2.322285,0.46727 1.509718,0 2.952959,-0.83237 2.952959,-2.64032 0,-2.70399 -3.66595,-2.20655 -3.66595,-3.93162 0,-0.69683 0.696463,-1.02854 1.492832,-1.02854 0.365136,0 1.29408,0.21569 1.642293,0.4313 l 0.132662,-1.36017 c -0.613818,-0.18256 -1.210752,-0.33212 -1.941,-0.33212 -1.675389,0 -2.986032,0.84631 -2.986032,2.60473 0,2.37227 3.666385,2.23923 3.666385,3.78204 0,0.91245 -0.879065,1.21112 -1.592445,1.21112 -0.448115,0 -1.327132,-0.19911 -1.940978,-0.59733 z m -3.69937,0.26528 h 1.559317 v -12.44154 h -1.559317 z m -6.652369,0 h 1.559347 v -3.84857 c 0,-2.12315 0.912432,-3.45033 2.305708,-3.45033 0.265605,0 0.580748,0.0331 0.862882,0.14917 v -1.39332 c -0.331727,-0.0665 -0.564214,-0.11643 -1.028555,-0.11643 -0.895886,0 -1.791839,0.6307 -2.206517,1.50975 h -0.03311 v -1.31069 h -1.459752 z m -8.742457,-6.53596 c 0.630341,-0.53082 1.575865,-0.86253 2.454895,-0.86253 1.559652,0 2.090453,0.7465 2.090453,2.20627 -0.613817,-0.0331 -1.045024,-0.0331 -1.658842,-0.0331 -1.609283,0 -3.931935,0.66329 -3.931935,2.78697 0,1.8414 1.277583,2.64033 3.102464,2.64033 1.426356,0 2.255821,-0.7824 2.620906,-1.29668 h 0.03306 v 1.09468 h 1.459747 c -0.03306,-0.24867 -0.06611,-0.6965 -0.06611,-1.65892 v -3.50023 c 0,-2.30578 -0.97893,-3.50033 -3.400746,-3.50033 -1.078459,0 -2.007442,0.33212 -2.786933,0.79639 l 0.08302,1.32713 z m 4.545348,3.25166 c 0,1.26066 -0.812886,2.22271 -2.355704,2.22271 -0.713341,0 -1.575832,-0.48084 -1.575832,-1.37674 0,-1.49323 2.090105,-1.62585 2.936088,-1.62585 0.331683,0 0.663367,0.0331 0.995448,0.0331 v 0.74683 z m -15.859119,3.2843 h 1.658898 v -5.67343 l 5.159117,5.67343 h 2.422181 l -5.87253,-6.10467 5.441273,-5.47435 H 52.16773 l -4.943508,5.09302 v -5.09302 h -1.658898 z"
           style="fill:#000000;fill-rule:nonzero;stroke-width:0.26458332"
           inkscape:connector-curvature="0" />
      </g>
      <path
         style="fill:none;stroke:#000000;stroke-width:1.04100001;stroke-linecap:butt;stroke-linejoin:miter;stroke-miterlimit:4;stroke-dasharray:none;stroke-opacity:1;marker-end:url(#marker4687-2)"
         d="m 133.30543,182.54581 25.30441,26.46531"
         id="path7019"
         inkscape:connector-curvature="0" />
      <path
         inkscape:connector-curvature="0"
         id="path7021"
         d="M 165.3555,207.06326 140.05109,180.59795"
         style="fill:none;stroke:#000000;stroke-width:1.04100001;stroke-linecap:butt;stroke-linejoin:miter;stroke-miterlimit:4;stroke-dasharray:none;stroke-opacity:1;marker-end:url(#marker6160)" />
      <g
         id="g7029"
         transform="matrix(0.71718689,0,0,0.71718689,76.387259,46.597111)">
        <text
           xml:space="preserve"
           style="font-style:normal;font-variant:normal;font-weight:normal;font-stretch:normal;font-size:8.03743553px;line-height:1.25;font-family:'Open Sans';-inkscape-font-specification:'Open Sans';letter-spacing:0px;word-spacing:0px;fill:#000000;fill-opacity:1;stroke:none;stroke-width:0.20093589"
           x="21.488573"
           y="181.33481"
           id="text7025"><tspan
             sodipodi:role="line"
             id="tspan7023"
             x="21.488573"
             y="181.33481"
             style="font-weight:bold;stroke-width:0.20093589">1</tspan></text>
        <circle
           r="4.6772165"
           cy="178.46597"
           cx="23.915251"
           id="circle7027"
           style="fill:none;fill-opacity:1;stroke:#32a189;stroke-width:1.04100001;stroke-linecap:butt;stroke-miterlimit:4;stroke-dasharray:none;stroke-dashoffset:0;stroke-opacity:1;paint-order:stroke markers fill" />
      </g>
      <text
         xml:space="preserve"
         style="font-style:normal;font-variant:normal;font-weight:normal;font-stretch:normal;font-size:5.76434326px;line-height:1.25;font-family:'Open Sans';-inkscape-font-specification:'Open Sans';letter-spacing:0px;word-spacing:0px;fill:#000000;fill-opacity:1;stroke:none;stroke-width:0.14410858"
         x="110.24018"
         y="195.35692"
         id="text7033"><tspan
           sodipodi:role="line"
           id="tspan7031"
           x="110.24018"
           y="195.35692"
           style="font-weight:bold;stroke-width:0.14410858">2</tspan></text>
      <circle
         r="3.3544383"
         cy="193.29944"
         cx="111.98056"
         id="circle7035"
         style="fill:none;fill-opacity:1;stroke:#32a189;stroke-width:0.74659157;stroke-linecap:butt;stroke-miterlimit:4;stroke-dasharray:none;stroke-dashoffset:0;stroke-opacity:1;paint-order:stroke markers fill" />
      <text
         id="text7039"
         y="195.89146"
         x="92.044266"
         style="font-style:normal;font-variant:normal;font-weight:normal;font-stretch:normal;font-size:5.76434326px;line-height:1.25;font-family:'Open Sans';-inkscape-font-specification:'Open Sans';letter-spacing:0px;word-spacing:0px;fill:#000000;fill-opacity:1;stroke:none;stroke-width:0.14410858"
         xml:space="preserve"><tspan
           style="font-weight:bold;stroke-width:0.14410858"
           y="195.89146"
           x="92.044266"
           id="tspan7037"
           sodipodi:role="line">3</tspan></text>
      <circle
         style="fill:none;fill-opacity:1;stroke:#32a189;stroke-width:0.74659157;stroke-linecap:butt;stroke-miterlimit:4;stroke-dasharray:none;stroke-dashoffset:0;stroke-opacity:1;paint-order:stroke markers fill"
         id="circle7041"
         cx="93.538963"
         cy="193.83397"
         r="3.3544383" />
      <text
         xml:space="preserve"
         style="font-style:normal;font-variant:normal;font-weight:normal;font-stretch:normal;font-size:5.76434326px;line-height:1.25;font-family:'Open Sans';-inkscape-font-specification:'Open Sans';letter-spacing:0px;word-spacing:0px;fill:#000000;fill-opacity:1;stroke:none;stroke-width:0.14410858"
         x="160.96471"
         y="196.33151"
         id="text7045"><tspan
           sodipodi:role="line"
           id="tspan7043"
           x="160.96471"
           y="196.33151"
           style="font-weight:bold;stroke-width:0.14410858">4</tspan></text>
      <circle
         r="3.3544383"
         cy="194.36852"
         cx="162.76178"
         id="circle7047"
         style="fill:none;fill-opacity:1;stroke:#32a189;stroke-width:0.74659157;stroke-linecap:butt;stroke-miterlimit:4;stroke-dasharray:none;stroke-dashoffset:0;stroke-opacity:1;paint-order:stroke markers fill" />
      <text
         id="text7051"
         y="176.91533"
         x="154.8526"
         style="font-style:normal;font-variant:normal;font-weight:normal;font-stretch:normal;font-size:5.76434326px;line-height:1.25;font-family:'Open Sans';-inkscape-font-specification:'Open Sans';letter-spacing:0px;word-spacing:0px;fill:#000000;fill-opacity:1;stroke:none;stroke-width:0.14410858"
         xml:space="preserve"><tspan
           style="font-weight:bold;stroke-width:0.14410858"
           y="176.91533"
           x="154.8526"
           id="tspan7049"
           sodipodi:role="line">5</tspan></text>
      <circle
         style="fill:none;fill-opacity:1;stroke:#32a189;stroke-width:0.74659157;stroke-linecap:butt;stroke-miterlimit:4;stroke-dasharray:none;stroke-dashoffset:0;stroke-opacity:1;paint-order:stroke markers fill"
         id="circle7053"
         cx="156.34731"
         cy="174.85783"
         r="3.3544383" />
    </g>
  </g>
</svg>
